<svg width="137" height="52" viewBox="0 0 137 52" fill="none" xmlns="http://www.w3.org/2000/svg">
<path d="M0 0V52H42.4606V0H0ZM13.009 31.1399C13.8469 31.2078 14.6873 31.0438 15.4391 30.6655C16.1909 30.2872 16.8256 29.7091 17.2743 28.9938L20.7931 31.1399C19.9765 32.439 18.8411 33.5045 17.4964 34.2337C16.1517 34.963 14.643 35.3313 13.1157 35.3033C11.8602 35.3524 10.6084 35.1382 9.43961 34.6745C8.27081 34.2108 7.21059 33.5076 6.32622 32.6096C5.44186 31.7115 4.75269 30.6383 4.30244 29.458C3.85219 28.2777 3.6507 27.016 3.71077 25.7532C3.68145 24.5174 3.90207 23.2884 4.35925 22.141C4.81642 20.9936 5.50061 19.9517 6.37024 19.0786C7.23987 18.2055 8.2768 17.5194 9.41804 17.0619C10.5593 16.6045 11.781 16.3853 13.009 16.4177C14.5363 16.3897 16.045 16.758 17.3897 17.4873C18.7345 18.2165 19.8699 19.282 20.6865 20.5811L17.1677 22.7272C16.7139 22.0169 16.0783 21.4427 15.3277 21.0651C14.5772 20.6874 13.7394 20.5202 12.9024 20.5811C12.2237 20.56 11.548 20.6796 10.9173 20.9326C10.2865 21.1856 9.71432 21.5666 9.2362 22.0517C8.75809 22.5369 8.38432 23.1159 8.13817 23.7527C7.89202 24.3895 7.77875 25.0704 7.80542 25.7532C7.74995 26.462 7.8453 27.1745 8.08511 27.8432C8.32493 28.5119 8.70369 29.1215 9.19614 29.6313C9.68859 30.1411 10.2834 30.5393 10.9409 30.7995C11.5984 31.0596 12.3034 31.1757 13.009 31.1399ZM38.6006 45.1969H3.43353V42.1923H38.4939L38.6006 45.1969ZM33.0344 34.7883H27.7242L21.8808 16.7825H26.3593L30.326 30.0454L34.2713 16.804H38.7498L33.0344 34.7883ZM39.0271 10.4944H3.96669V7.48989H39.0271V10.4944Z" fill="white"/>
<path d="M63.6803 29.5089C63.668 30.2448 63.5061 30.9704 63.2043 31.6409C62.9026 32.3114 62.4675 32.9126 61.926 33.4073C61.3844 33.902 60.7478 34.2798 60.0555 34.5173C59.3633 34.7548 58.6299 34.847 57.9009 34.7883H50.3727V16.7825H57.389C58.1013 16.7237 58.818 16.8125 59.4947 17.0436C60.1715 17.2746 60.794 17.6429 61.3237 18.1256C61.8534 18.6084 62.2791 19.1954 62.5744 19.8503C62.8696 20.5052 63.0283 21.2141 63.0405 21.9331C63.0512 22.5985 62.9174 23.2581 62.6485 23.866C62.3796 24.474 61.9821 25.0155 61.4837 25.4527C62.1702 25.8766 62.7344 26.4741 63.1198 27.1859C63.5052 27.8976 63.6985 28.6985 63.6803 29.5089ZM54.4673 20.6455V23.8217H57.389C57.8076 23.8217 58.209 23.6544 58.5049 23.3566C58.8009 23.0587 58.9672 22.6548 58.9672 22.2336C58.9672 21.8124 58.8009 21.4085 58.5049 21.1106C58.209 20.8128 57.8076 20.6455 57.389 20.6455H54.4673ZM59.5856 29.2299C59.6011 29.0022 59.5683 28.7739 59.4894 28.56C59.4105 28.3461 59.2873 28.1515 59.128 27.9891C58.9687 27.8268 58.7769 27.7004 58.5653 27.6183C58.3537 27.5362 58.1272 27.5003 57.9009 27.513H54.4673V30.9468H57.9009C58.1292 30.9598 58.3576 30.9234 58.5708 30.8401C58.7839 30.7567 58.9769 30.6284 59.1365 30.4636C59.2962 30.2989 59.4189 30.1016 59.4964 29.885C59.5739 29.6685 59.6043 29.4378 59.5856 29.2084V29.2299Z" fill="white"/>
<path d="M78.7366 21.9331V34.8097H74.8979V33.6079C74.4536 34.1429 73.8893 34.5639 73.2515 34.8363C72.6138 35.1086 71.9208 35.2246 71.2298 35.1746C70.5569 35.1785 69.8909 35.0393 69.2752 34.7662C68.6595 34.493 68.1082 34.0921 67.6572 33.5896C67.2062 33.0872 66.8657 32.4945 66.6582 31.8504C66.4506 31.2064 66.3806 30.5254 66.4527 29.8522V21.9331H70.3767V29.2513C70.35 29.549 70.3853 29.8489 70.4805 30.132C70.5756 30.4151 70.7284 30.6751 70.9292 30.8953C71.13 31.1155 71.3742 31.2911 71.6463 31.4109C71.9184 31.5306 72.2124 31.5918 72.5093 31.5906C73.9169 31.5906 74.8979 30.7751 74.8979 28.9509V21.9331H78.7366Z" fill="white"/>
<path d="M81.9143 18.4779C81.9143 18.0195 82.0494 17.5714 82.3025 17.1902C82.5556 16.8091 82.9153 16.512 83.3361 16.3366C83.757 16.1611 84.2201 16.1152 84.6669 16.2047C85.1137 16.2941 85.5241 16.5148 85.8462 16.839C86.1683 17.1631 86.3876 17.5761 86.4765 18.0257C86.5654 18.4753 86.5198 18.9414 86.3455 19.3649C86.1711 19.7884 85.8759 20.1504 85.4971 20.4051C85.1184 20.6598 84.6731 20.7957 84.2175 20.7957C83.6084 20.7901 83.0258 20.5441 82.5951 20.1106C82.1643 19.6772 81.9199 19.0909 81.9143 18.4779ZM82.2982 21.9331H86.1369V34.8097H82.2982V21.9331Z" fill="white"/>
<path d="M89.6984 16.0099H93.5371V34.7883H89.6984V16.0099Z" fill="white"/>
<path d="M110.214 16.7825V34.7883H106.376V33.5865C105.891 34.1119 105.299 34.5244 104.639 34.795C103.98 35.0656 103.269 35.1879 102.558 35.1531C101.71 35.1175 100.878 34.9125 100.109 34.55C99.3407 34.1874 98.6516 33.6747 98.0819 33.0415C97.5123 32.4084 97.0735 31.6675 96.7912 30.862C96.5089 30.0566 96.3886 29.2027 96.4375 28.35C96.3916 27.499 96.514 26.6474 96.7976 25.8444C97.0813 25.0415 97.5205 24.3032 98.0899 23.6723C98.6592 23.0415 99.3473 22.5307 100.114 22.1695C100.881 21.8083 101.712 21.604 102.558 21.5683C103.27 21.5291 103.982 21.6493 104.642 21.9202C105.302 22.1911 105.894 22.606 106.376 23.135V16.6967L110.214 16.7825ZM106.376 28.35C106.376 27.536 106.054 26.7555 105.482 26.1799C104.91 25.6044 104.135 25.2811 103.326 25.2811C102.517 25.2811 101.741 25.6044 101.169 26.1799C100.598 26.7555 100.276 27.536 100.276 28.35C100.276 29.1639 100.598 29.9445 101.169 30.52C101.741 31.0956 102.517 31.4189 103.326 31.4189C104.135 31.4189 104.91 31.0956 105.482 30.52C106.054 29.9445 106.376 29.1639 106.376 28.35Z" fill="white"/>
<path d="M120.259 31.6979C120.711 31.7109 121.161 31.6321 121.583 31.4662C122.004 31.3002 122.388 31.0506 122.711 30.7322L125.782 32.492C125.152 33.3713 124.312 34.0762 123.339 34.5414C122.366 35.0066 121.292 35.217 120.216 35.1531C119.288 35.2351 118.353 35.1188 117.473 34.8118C116.593 34.5048 115.787 34.014 115.108 33.3716C114.43 32.7293 113.894 31.9498 113.536 31.0844C113.177 30.219 113.005 29.2872 113.029 28.35C113.005 27.4474 113.166 26.5494 113.5 25.7115C113.834 24.8736 114.335 24.1135 114.973 23.478C115.61 22.8426 116.37 22.3453 117.206 22.0169C118.042 21.6884 118.936 21.5358 119.832 21.5683C120.711 21.5523 121.583 21.7186 122.395 22.0569C123.207 22.3951 123.941 22.8981 124.552 23.5343C125.162 24.1706 125.635 24.9266 125.942 25.7551C126.25 26.5836 126.384 27.467 126.337 28.35C126.344 28.869 126.294 29.3873 126.188 29.8952H117.295C117.53 30.4766 117.946 30.966 118.48 31.2907C119.014 31.6155 119.638 31.7583 120.259 31.6979ZM122.605 27.0194C122.465 26.4126 122.116 25.8752 121.621 25.5021C121.125 25.129 120.514 24.9443 119.896 24.9806C119.266 24.932 118.639 25.1103 118.127 25.4837C117.616 25.8571 117.252 26.4014 117.103 27.0194H122.605Z" fill="white"/>
<path d="M137 21.6756V25.9678C136.551 25.8413 136.079 25.8217 135.621 25.9104C135.163 25.9991 134.732 26.1937 134.362 26.4788C133.992 26.764 133.692 27.1319 133.488 27.5535C133.283 27.9751 133.179 28.4388 133.183 28.908V34.7239H129.344V21.8473H133.183V24.1222C133.476 23.358 134.005 22.7084 134.692 22.2682C135.379 21.828 136.188 21.6204 137 21.6756Z" fill="white"/>
</svg>
