<svg width="740" height="757" viewBox="0 0 740 757" fill="none" xmlns="http://www.w3.org/2000/svg">
<path d="M632.839 445.782C630.214 425.858 625.831 406.206 619.743 387.054C613.248 365.858 605.678 344.496 606.465 322.391C607.025 306.812 611.734 291.702 614.035 276.275C617.805 251.612 615.474 226.222 608.978 202.089C604.3 184.753 597.366 167.766 586.268 153.641C576.337 140.999 563.346 130.931 549.357 123.088C512.385 102.18 469.115 95.594 426.723 92.8082C386.027 90.083 344.498 90.5826 305.331 101.892C280.974 108.889 258.311 120.807 238.743 136.911C219.176 153.015 203.12 172.962 191.569 195.518C166.391 244.814 151.826 300.211 116.55 343.89C97.9277 366.948 73.6432 386.554 62.9846 414.2C47.7386 453.731 66.6788 501.361 101.228 525.888C123.015 541.361 149.404 548.749 173.083 561.149C194.93 572.58 214.339 588.204 235.853 600.256C314.884 644.51 412.976 635.88 500.228 612.019C543.861 600.134 589.554 582.527 614.595 544.858C633.793 515.926 637.048 480.877 632.839 445.782Z" fill="#829C9C"/>
<path opacity="0.8" d="M632.839 445.782C630.214 425.858 625.831 406.206 619.743 387.054C613.248 365.858 605.678 344.496 606.465 322.391C607.025 306.812 611.734 291.702 614.035 276.275C617.805 251.612 615.474 226.222 608.978 202.089C604.3 184.753 597.366 167.766 586.268 153.641C576.337 140.999 563.346 130.931 549.357 123.088C512.385 102.18 469.115 95.594 426.723 92.8082C386.027 90.083 344.498 90.5826 305.331 101.892C280.974 108.889 258.311 120.807 238.743 136.911C219.176 153.015 203.12 172.962 191.569 195.518C166.391 244.814 151.826 300.211 116.55 343.89C97.9277 366.948 73.6432 386.554 62.9846 414.2C47.7386 453.731 66.6788 501.361 101.228 525.888C123.015 541.361 149.404 548.749 173.083 561.149C194.93 572.58 214.339 588.204 235.853 600.256C314.884 644.51 412.976 635.88 500.228 612.019C543.861 600.134 589.554 582.527 614.595 544.858C633.793 515.926 637.048 480.877 632.839 445.782Z" fill="white"/>
<path d="M371.008 659.877C512.143 659.877 626.556 652 626.556 642.284C626.556 632.568 512.143 624.692 371.008 624.692C229.873 624.692 115.46 632.568 115.46 642.284C115.46 652 229.873 659.877 371.008 659.877Z" fill="#202B30"/>
<path d="M217.488 509.749C216.428 504.631 215.02 497.288 213.734 488.416C213.355 485.858 212.992 483.148 212.659 480.347C213.809 480.135 222.954 478.348 226.512 475.805C229.752 473.519 233.234 469.749 233.37 465.51C233.448 464.518 233.315 463.52 232.979 462.584C232.642 461.647 232.111 460.793 231.419 460.077C230.728 459.361 229.893 458.801 228.968 458.432C228.044 458.064 227.052 457.896 226.058 457.94C220.123 458.348 214.642 467.553 213.355 472.716C213.279 473.049 212.749 477.046 212.522 479.105C212.326 477.41 212.129 475.729 211.947 473.973C211.675 471.429 211.463 468.75 211.251 466.145C211.251 464.783 211.114 463.42 211.054 462.042C210.993 460.665 211.054 459.317 211.054 457.924C211.054 455.896 211.205 453.791 211.311 451.702C213.915 451.581 221.531 451.081 224.937 449.355C228.344 447.629 232.507 444.344 233.279 440.271C233.491 439.309 233.499 438.314 233.303 437.349C233.107 436.383 232.711 435.47 232.141 434.667C231.57 433.864 230.838 433.189 229.991 432.687C229.144 432.184 228.201 431.864 227.223 431.747C221.304 431.263 214.475 439.529 212.447 444.435C212.371 444.586 212.053 445.676 211.675 446.963C211.856 444.919 212.023 442.875 212.28 440.816C212.977 434.987 213.885 429.052 214.763 423.102C214.945 421.861 215.111 420.635 215.293 419.393C217.473 419.287 225.74 418.833 229.328 417.031C232.916 415.23 236.898 412.005 237.67 407.947C237.884 406.985 237.894 405.989 237.699 405.023C237.504 404.057 237.108 403.142 236.537 402.339C235.967 401.535 235.233 400.86 234.385 400.358C233.537 399.856 232.593 399.538 231.614 399.423C225.679 398.939 218.866 407.205 216.822 412.111C216.822 412.277 216.368 413.625 215.944 415.018C216.383 411.793 216.762 408.553 217.049 405.343C217.582 399.809 217.739 394.245 217.519 388.689C218.291 388.689 227.98 388.311 231.977 386.312C235.535 384.541 239.547 381.301 240.319 377.228C240.534 376.267 240.544 375.272 240.349 374.306C240.153 373.341 239.757 372.428 239.186 371.625C238.615 370.823 237.882 370.15 237.034 369.649C236.186 369.148 235.242 368.832 234.263 368.72C228.329 368.22 221.516 376.502 219.472 381.392C219.32 381.74 217.958 386.433 217.549 388.114C217.541 388.048 217.541 387.982 217.549 387.917C217.198 382.48 216.368 377.084 215.066 371.793C213.923 367.062 212.508 362.401 210.827 357.834C209.313 353.595 207.662 349.795 206.179 346.449C205.361 344.632 204.574 342.997 203.832 341.483H203.953C204.059 341.483 203.771 334.291 203.711 333.913C202.893 328.674 198.245 319.015 192.371 318.076C191.392 317.946 190.396 318.024 189.449 318.305C188.501 318.586 187.624 319.063 186.874 319.706C186.124 320.349 185.518 321.143 185.095 322.036C184.673 322.929 184.444 323.902 184.423 324.889C184.18 329.083 187.314 333.186 190.327 335.76C193.34 338.334 201.485 340.847 203.484 341.422C204.226 343.027 204.998 344.738 205.83 346.645C207.238 350.022 208.858 353.837 210.206 358.106C210.584 359.242 210.948 360.483 211.326 361.664C210.282 359.787 208.813 357.228 208.631 357.001C205.497 352.717 196.913 346.282 191.281 348.159C190.352 348.495 189.504 349.022 188.792 349.707C188.081 350.392 187.522 351.22 187.152 352.136C186.782 353.051 186.609 354.035 186.645 355.022C186.681 356.009 186.924 356.978 187.36 357.864C189.07 361.695 193.749 363.92 197.625 364.783C201.5 365.646 210.13 364.117 211.977 363.754C212.765 366.403 213.491 369.143 214.127 372.05C215.272 377.274 215.951 382.589 216.156 387.932C216.156 388.25 216.156 388.568 216.156 388.886C215.793 387.856 213.431 382.421 213.234 382.058C210.584 377.516 202.757 370.112 196.943 371.354C195.982 371.587 195.08 372.019 194.297 372.624C193.513 373.228 192.866 373.991 192.398 374.863C191.929 375.734 191.65 376.694 191.577 377.681C191.505 378.668 191.641 379.659 191.977 380.589C193.264 384.571 197.685 387.281 201.425 388.583C205.74 390.097 215.777 389.128 216.141 389.098C216.223 394.459 215.955 399.82 215.338 405.146C214.899 409.098 214.294 413.08 213.643 417.062C213.143 415.744 210.963 410.688 210.751 410.339C208.117 405.797 200.289 398.409 194.475 399.651C193.516 399.883 192.616 400.316 191.834 400.919C191.052 401.523 190.406 402.284 189.937 403.154C189.469 404.023 189.189 404.982 189.115 405.967C189.041 406.952 189.176 407.941 189.51 408.871C190.796 412.868 195.202 415.563 198.957 416.88C203.166 418.394 212.78 417.47 213.597 417.395C213.294 419.196 213.007 421.013 212.704 422.83C211.69 428.734 210.66 434.669 209.827 440.544C209.525 442.588 209.313 444.601 209.101 446.6C208.298 444.647 206.769 441.134 206.603 440.846C203.953 436.304 196.126 428.901 190.312 430.158C189.352 430.391 188.452 430.823 187.67 431.426C186.888 432.03 186.242 432.791 185.774 433.661C185.305 434.531 185.025 435.489 184.952 436.474C184.878 437.459 185.012 438.448 185.346 439.378C186.633 443.375 191.039 446.07 194.793 447.387C198.548 448.704 206.648 448.129 208.934 447.947C208.586 451.308 208.329 454.654 208.223 457.955C208.223 459.378 208.086 460.846 208.223 462.209C208.359 463.572 208.223 464.965 208.313 466.312C208.495 469.113 208.631 471.717 208.858 474.321C208.964 475.638 209.086 476.88 209.207 478.151C208.692 476.062 207.814 472.746 207.693 472.459C205.77 467.508 199.154 459.075 193.204 459.423C192.22 459.511 191.266 459.804 190.403 460.284C189.54 460.764 188.787 461.42 188.193 462.209C187.6 462.998 187.178 463.903 186.956 464.866C186.735 465.828 186.717 466.826 186.905 467.796C187.572 471.929 191.447 475.275 195.021 477.137C198.896 479.181 208.207 479.787 209.343 479.862C209.646 482.981 209.979 486.024 210.327 488.855C211.447 497.849 212.704 505.282 213.658 510.49C214.612 515.699 215.293 518.651 215.293 518.651C215.339 518.936 215.443 519.209 215.6 519.452C215.756 519.695 215.962 519.903 216.203 520.063C216.444 520.222 216.715 520.33 217 520.379C217.285 520.429 217.577 520.418 217.857 520.349C218.138 520.28 218.401 520.153 218.63 519.976C218.859 519.8 219.049 519.578 219.188 519.325C219.327 519.071 219.412 518.792 219.437 518.504C219.463 518.216 219.428 517.926 219.335 517.652C219.335 517.652 218.548 514.881 217.488 509.749Z" fill="#009FA9"/>
<path d="M212.401 362.648C212.401 362.648 222.394 359.62 225.861 356.486C228.889 353.852 231.917 349.658 231.478 345.465C231.43 344.479 231.176 343.514 230.731 342.633C230.285 341.752 229.659 340.975 228.894 340.352C228.128 339.73 227.24 339.275 226.287 339.019C225.334 338.762 224.337 338.709 223.363 338.864C217.519 339.954 213.113 349.734 212.447 355.003C212.386 355.457 212.295 362.679 212.401 362.648Z" fill="#009FA9"/>
<path d="M217.67 520.347C217.917 520.517 218.124 520.739 218.277 520.996C218.431 521.254 218.527 521.541 218.559 521.839C218.592 522.137 218.56 522.439 218.465 522.723C218.371 523.008 218.216 523.269 218.012 523.488C217.808 523.708 217.559 523.881 217.282 523.996C217.005 524.111 216.707 524.164 216.407 524.154C216.107 524.143 215.814 524.068 215.546 523.933C215.278 523.799 215.042 523.608 214.854 523.375C214.854 523.375 212.644 521.255 208.995 517.455C205.346 513.655 200.168 508.129 194.279 501.255C192.416 499.075 190.479 496.713 188.495 494.291C187.511 494.851 179.411 499.484 175.051 499.908C171.099 500.286 165.967 499.681 163.121 496.592C162.428 495.888 161.892 495.047 161.546 494.123C161.2 493.199 161.052 492.212 161.112 491.227C161.172 490.242 161.439 489.281 161.894 488.405C162.35 487.53 162.984 486.76 163.756 486.145C168.526 482.572 178.7 485.964 183.03 489.037C183.287 489.219 185.846 491.49 187.42 492.943C186.618 491.944 185.906 490.99 185.013 489.915C183.393 487.871 181.834 485.782 180.153 483.526L177.806 480.165C176.989 479.06 176.292 477.788 175.505 476.592C173.764 473.776 172.144 470.839 170.585 467.841C168.783 469.249 162.333 474.185 158.473 475.169C154.612 476.153 149.389 476.32 146.179 473.655C145.387 473.064 144.728 472.314 144.245 471.452C143.762 470.59 143.466 469.636 143.376 468.652C143.286 467.668 143.404 466.676 143.723 465.741C144.041 464.806 144.553 463.948 145.225 463.223C149.404 458.984 159.971 460.786 164.71 463.223C165.013 463.375 168.223 465.464 169.964 466.645C169.04 464.828 168.102 463.027 167.223 461.164C164.68 455.805 162.273 450.294 159.85 444.798C159.108 443.118 158.336 441.452 157.594 439.772C156.959 440.286 149.419 446.327 145.104 447.417C141.258 448.401 136.02 448.568 132.81 445.903C132.018 445.313 131.359 444.562 130.876 443.7C130.393 442.838 130.097 441.884 130.007 440.9C129.917 439.916 130.036 438.924 130.354 437.989C130.673 437.054 131.185 436.196 131.856 435.472C136.02 431.233 146.588 433.034 151.342 435.472C151.705 435.654 156.323 438.666 157.398 439.484C155.732 435.805 154.052 432.156 152.235 428.613C149.809 423.83 147.078 419.208 144.059 414.775C143.756 415.018 135.929 421.361 131.493 422.482C127.648 423.451 122.409 423.632 119.199 420.968C118.406 420.377 117.747 419.627 117.264 418.764C116.781 417.901 116.486 416.946 116.397 415.962C116.308 414.977 116.429 413.985 116.75 413.05C117.071 412.115 117.586 411.259 118.261 410.536C122.424 406.297 132.992 408.099 137.731 410.536C138.109 410.718 143.075 413.958 143.938 414.609C143.756 414.352 143.605 414.079 143.423 413.822C140.253 409.481 136.706 405.428 132.825 401.71C130.706 399.62 128.571 397.743 126.451 395.956C125.104 397.289 118.881 403.299 115.051 404.753C111.221 406.206 106.224 406.888 102.667 404.632C101.815 404.133 101.078 403.46 100.504 402.658C99.9295 401.855 99.5309 400.94 99.3337 399.973C99.1366 399.006 99.1455 398.008 99.3597 397.045C99.574 396.082 99.9888 395.174 100.577 394.382C104.256 389.704 114.96 390.324 119.941 392.171C120.214 392.277 122.848 393.595 124.756 394.579C123.787 393.791 122.803 392.959 121.864 392.232C118.321 389.446 114.915 387.115 111.887 385.086C110.146 383.95 108.556 382.951 107.057 382.058C105.059 382.679 96.989 385.086 92.9618 384.586C88.9345 384.087 84.1352 382.406 82.0155 378.773C81.4932 377.935 81.1522 376.998 81.0147 376.021C80.8772 375.043 80.9463 374.048 81.2174 373.099C81.4885 372.151 81.9556 371.269 82.5886 370.512C83.2216 369.755 84.0063 369.139 84.8922 368.704C90.3123 366.252 99.5174 371.732 103.06 375.669C103.363 376.017 107.602 381.876 107.481 381.906H107.36C108.874 382.754 110.388 383.693 112.053 384.753C115.081 386.721 118.609 388.977 122.227 391.687C126.144 394.572 129.894 397.676 133.461 400.983C137.458 404.696 141.126 408.748 144.423 413.095C144.449 413.156 144.485 413.212 144.529 413.261C143.953 411.626 142.5 406.963 142.424 406.6C141.425 401.392 142.56 390.718 147.769 387.857C148.648 387.406 149.611 387.146 150.597 387.093C151.584 387.039 152.57 387.194 153.492 387.547C154.415 387.899 155.252 388.442 155.951 389.14C156.65 389.837 157.195 390.674 157.549 391.596C159.184 395.472 157.549 400.392 155.641 403.829C153.401 407.705 145.513 413.352 144.892 413.791C148.12 418.298 151.048 423.011 153.658 427.902C155.172 430.748 156.686 433.655 158.079 436.592C157.625 435.154 157.231 433.867 157.201 433.685C156.202 428.477 157.322 417.803 162.545 414.942C163.425 414.492 164.39 414.233 165.377 414.18C166.364 414.128 167.35 414.284 168.273 414.638C169.195 414.992 170.033 415.537 170.731 416.236C171.43 416.935 171.973 417.774 172.326 418.697C173.961 422.557 172.326 427.478 170.418 430.915C168.51 434.351 161.773 439.348 160.002 440.635C160.532 441.77 161.077 442.89 161.607 444.026C164.165 449.461 166.678 454.912 169.313 460.18C170.236 462.027 171.22 463.814 172.189 465.616C171.796 464.344 171.478 463.269 171.432 463.087C170.433 457.879 171.569 447.22 176.777 444.359C177.656 443.909 178.62 443.649 179.606 443.595C180.592 443.542 181.578 443.697 182.5 444.049C183.423 444.402 184.261 444.945 184.96 445.642C185.659 446.34 186.203 447.177 186.557 448.099C188.192 451.959 186.633 456.895 184.65 460.332C182.666 463.768 176.656 468.265 174.551 469.809C175.611 471.611 176.656 473.428 177.761 475.139C178.548 476.289 179.275 477.455 180.062 478.56L182.485 481.876C184.105 483.92 185.755 486.055 187.39 488.008C188.51 489.385 189.6 490.672 190.706 491.974C189.752 490.142 187.98 486.509 187.874 486.191C186.088 481.179 185.588 470.475 190.312 466.857C191.112 466.279 192.025 465.875 192.992 465.673C193.958 465.47 194.957 465.473 195.922 465.682C196.887 465.89 197.798 466.299 198.594 466.883C199.391 467.466 200.056 468.21 200.547 469.067C202.742 472.641 201.94 477.758 200.547 481.452C199.033 485.525 192.326 492.05 191.463 492.868C193.295 495.017 195.081 497.076 196.822 499.014C202.787 505.691 208.011 511.036 211.72 514.73C215.429 518.424 217.67 520.347 217.67 520.347ZM126.33 394.791C126.33 394.791 132.977 386.721 134.158 382.224C135.157 378.394 135.369 373.14 132.78 369.931C132.195 369.133 131.449 368.468 130.59 367.978C129.731 367.488 128.778 367.185 127.794 367.088C126.81 366.991 125.816 367.102 124.878 367.414C123.94 367.727 123.078 368.233 122.349 368.901C118.079 373.034 119.805 383.617 122.152 388.386C122.288 388.795 126.255 394.866 126.33 394.791Z" fill="#009FA9"/>
<path opacity="0.1" d="M217.67 520.347C217.917 520.517 218.124 520.739 218.277 520.996C218.431 521.254 218.527 521.541 218.559 521.839C218.592 522.137 218.56 522.439 218.465 522.723C218.371 523.008 218.216 523.269 218.012 523.488C217.808 523.708 217.559 523.881 217.282 523.996C217.005 524.111 216.707 524.164 216.407 524.154C216.107 524.143 215.814 524.068 215.546 523.933C215.278 523.799 215.042 523.608 214.854 523.375C214.854 523.375 212.644 521.255 208.995 517.455C205.346 513.655 200.168 508.129 194.279 501.255C192.416 499.075 190.479 496.713 188.495 494.291C187.511 494.851 179.411 499.484 175.051 499.908C171.099 500.286 165.967 499.681 163.121 496.592C162.428 495.888 161.892 495.047 161.546 494.123C161.2 493.199 161.052 492.212 161.112 491.227C161.172 490.242 161.439 489.281 161.894 488.405C162.35 487.53 162.984 486.76 163.756 486.145C168.526 482.572 178.7 485.964 183.03 489.037C183.287 489.219 185.846 491.49 187.42 492.943C186.618 491.944 185.906 490.99 185.013 489.915C183.393 487.871 181.834 485.782 180.153 483.526L177.806 480.165C176.989 479.06 176.292 477.788 175.505 476.592C173.764 473.776 172.144 470.839 170.585 467.841C168.783 469.249 162.333 474.185 158.473 475.169C154.612 476.153 149.389 476.32 146.179 473.655C145.387 473.064 144.728 472.314 144.245 471.452C143.762 470.59 143.466 469.636 143.376 468.652C143.286 467.668 143.404 466.676 143.723 465.741C144.041 464.806 144.553 463.948 145.225 463.223C149.404 458.984 159.971 460.786 164.71 463.223C165.013 463.375 168.223 465.464 169.964 466.645C169.04 464.828 168.102 463.027 167.223 461.164C164.68 455.805 162.273 450.294 159.85 444.798C159.108 443.118 158.336 441.452 157.594 439.772C156.959 440.286 149.419 446.327 145.104 447.417C141.258 448.401 136.02 448.568 132.81 445.903C132.018 445.313 131.359 444.562 130.876 443.7C130.393 442.838 130.097 441.884 130.007 440.9C129.917 439.916 130.036 438.924 130.354 437.989C130.673 437.054 131.185 436.196 131.856 435.472C136.02 431.233 146.588 433.034 151.342 435.472C151.705 435.654 156.323 438.666 157.398 439.484C155.732 435.805 154.052 432.156 152.235 428.613C149.809 423.83 147.078 419.208 144.059 414.775C143.756 415.018 135.929 421.361 131.493 422.482C127.648 423.451 122.409 423.632 119.199 420.968C118.406 420.377 117.747 419.627 117.264 418.764C116.781 417.901 116.486 416.946 116.397 415.962C116.308 414.977 116.429 413.985 116.75 413.05C117.071 412.115 117.586 411.259 118.261 410.536C122.424 406.297 132.992 408.099 137.731 410.536C138.109 410.718 143.075 413.958 143.938 414.609C143.756 414.352 143.605 414.079 143.423 413.822C140.253 409.481 136.706 405.428 132.825 401.71C130.706 399.62 128.571 397.743 126.451 395.956C125.104 397.289 118.881 403.299 115.051 404.753C111.221 406.206 106.224 406.888 102.667 404.632C101.815 404.133 101.078 403.46 100.504 402.658C99.9295 401.855 99.5309 400.94 99.3337 399.973C99.1366 399.006 99.1455 398.008 99.3597 397.045C99.574 396.082 99.9888 395.174 100.577 394.382C104.256 389.704 114.96 390.324 119.941 392.171C120.214 392.277 122.848 393.595 124.756 394.579C123.787 393.791 122.803 392.959 121.864 392.232C118.321 389.446 114.915 387.115 111.887 385.086C110.146 383.95 108.556 382.951 107.057 382.058C105.059 382.679 96.989 385.086 92.9618 384.586C88.9345 384.087 84.1352 382.406 82.0155 378.773C81.4932 377.935 81.1522 376.998 81.0147 376.021C80.8772 375.043 80.9463 374.048 81.2174 373.099C81.4885 372.151 81.9556 371.269 82.5886 370.512C83.2216 369.755 84.0063 369.139 84.8922 368.704C90.3123 366.252 99.5174 371.732 103.06 375.669C103.363 376.017 107.602 381.876 107.481 381.906H107.36C108.874 382.754 110.388 383.693 112.053 384.753C115.081 386.721 118.609 388.977 122.227 391.687C126.144 394.572 129.894 397.676 133.461 400.983C137.458 404.696 141.126 408.748 144.423 413.095C144.449 413.156 144.485 413.212 144.529 413.261C143.953 411.626 142.5 406.963 142.424 406.6C141.425 401.392 142.56 390.718 147.769 387.857C148.648 387.406 149.611 387.146 150.597 387.093C151.584 387.039 152.57 387.194 153.492 387.547C154.415 387.899 155.252 388.442 155.951 389.14C156.65 389.837 157.195 390.674 157.549 391.596C159.184 395.472 157.549 400.392 155.641 403.829C153.401 407.705 145.513 413.352 144.892 413.791C148.12 418.298 151.048 423.011 153.658 427.902C155.172 430.748 156.686 433.655 158.079 436.592C157.625 435.154 157.231 433.867 157.201 433.685C156.202 428.477 157.322 417.803 162.545 414.942C163.425 414.492 164.39 414.233 165.377 414.18C166.364 414.128 167.35 414.284 168.273 414.638C169.195 414.992 170.033 415.537 170.731 416.236C171.43 416.935 171.973 417.774 172.326 418.697C173.961 422.557 172.326 427.478 170.418 430.915C168.51 434.351 161.773 439.348 160.002 440.635C160.532 441.77 161.077 442.89 161.607 444.026C164.165 449.461 166.678 454.912 169.313 460.18C170.236 462.027 171.22 463.814 172.189 465.616C171.796 464.344 171.478 463.269 171.432 463.087C170.433 457.879 171.569 447.22 176.777 444.359C177.656 443.909 178.62 443.649 179.606 443.595C180.592 443.542 181.578 443.697 182.5 444.049C183.423 444.402 184.261 444.945 184.96 445.642C185.659 446.34 186.203 447.177 186.557 448.099C188.192 451.959 186.633 456.895 184.65 460.332C182.666 463.768 176.656 468.265 174.551 469.809C175.611 471.611 176.656 473.428 177.761 475.139C178.548 476.289 179.275 477.455 180.062 478.56L182.485 481.876C184.105 483.92 185.755 486.055 187.39 488.008C188.51 489.385 189.6 490.672 190.706 491.974C189.752 490.142 187.98 486.509 187.874 486.191C186.088 481.179 185.588 470.475 190.312 466.857C191.112 466.279 192.025 465.875 192.992 465.673C193.958 465.47 194.957 465.473 195.922 465.682C196.887 465.89 197.798 466.299 198.594 466.883C199.391 467.466 200.056 468.21 200.547 469.067C202.742 472.641 201.94 477.758 200.547 481.452C199.033 485.525 192.326 492.05 191.463 492.868C193.295 495.017 195.081 497.076 196.822 499.014C202.787 505.691 208.011 511.036 211.72 514.73C215.429 518.424 217.67 520.347 217.67 520.347ZM126.33 394.791C126.33 394.791 132.977 386.721 134.158 382.224C135.157 378.394 135.369 373.14 132.78 369.931C132.195 369.133 131.449 368.468 130.59 367.978C129.731 367.488 128.778 367.185 127.794 367.088C126.81 366.991 125.816 367.102 124.878 367.414C123.94 367.727 123.078 368.233 122.349 368.901C118.079 373.034 119.805 383.617 122.152 388.386C122.288 388.795 126.255 394.866 126.33 394.791Z" fill="#202B30"/>
<path d="M178.866 620.195C177.579 615.123 175.838 607.856 174.173 598.999C173.688 596.471 173.204 593.761 172.75 590.99C173.87 590.717 182.939 588.537 186.376 585.857C189.509 583.42 192.825 579.453 192.78 575.259C192.802 574.278 192.618 573.302 192.24 572.396C191.861 571.49 191.298 570.673 190.584 569.999C189.871 569.324 189.024 568.806 188.098 568.479C187.173 568.151 186.189 568.022 185.21 568.098C179.29 568.764 174.218 578.212 173.098 583.42C173.098 583.753 172.674 587.78 172.553 589.839C172.265 588.159 171.993 586.493 171.735 584.737C171.357 582.224 171.024 579.544 170.69 576.955L170.327 572.867C170.161 571.474 170.191 570.127 170.115 568.749C170.115 566.721 170.115 564.616 170.115 562.527C172.704 562.284 180.289 561.452 183.65 559.574C187.011 557.697 190.993 554.23 191.569 550.082C191.741 549.109 191.706 548.11 191.466 547.152C191.227 546.193 190.787 545.296 190.177 544.518C189.567 543.741 188.8 543.101 187.926 542.641C187.051 542.18 186.09 541.909 185.104 541.845C179.169 541.603 172.719 550.172 170.887 555.169C170.887 555.32 170.554 556.41 170.251 557.712C170.251 555.668 170.418 553.64 170.569 551.565C171.024 545.691 171.659 539.741 172.28 533.761C172.401 532.504 172.507 531.263 172.644 530.021C174.824 529.824 183.045 528.992 186.557 526.993C190.07 524.995 193.9 521.649 194.491 517.485C194.661 516.512 194.624 515.515 194.383 514.557C194.143 513.6 193.703 512.703 193.093 511.927C192.484 511.15 191.717 510.51 190.844 510.049C189.971 509.587 189.011 509.315 188.026 509.249C182.091 509.022 175.626 517.591 173.809 522.572C173.809 522.754 173.416 524.086 173.067 525.525C173.355 522.269 173.597 519.03 173.749 515.805C174.032 510.254 173.941 504.69 173.476 499.151C174.248 499.151 183.908 498.303 187.829 496.123C191.281 494.2 195.172 490.778 195.747 486.615C195.92 485.642 195.885 484.643 195.645 483.685C195.405 482.726 194.966 481.829 194.356 481.051C193.746 480.274 192.979 479.634 192.104 479.174C191.23 478.713 190.269 478.442 189.282 478.379C183.348 478.151 176.898 486.721 175.066 491.702C174.945 492.05 173.794 496.789 173.446 498.5C173.446 498.5 173.446 498.363 173.446 498.303C172.866 492.884 171.802 487.529 170.267 482.3C168.911 477.628 167.289 473.038 165.407 468.553C163.711 464.374 161.894 460.65 160.259 457.364C159.366 455.593 158.518 454.003 157.7 452.504H157.821C157.927 452.504 157.337 445.343 157.246 444.934C156.201 439.726 151.19 430.279 145.134 429.598C144.155 429.521 143.171 429.651 142.245 429.978C141.32 430.305 140.473 430.823 139.76 431.498C139.046 432.173 138.482 432.989 138.104 433.896C137.726 434.802 137.542 435.777 137.564 436.759C137.564 440.953 140.819 444.919 143.953 447.357C147.087 449.794 155.308 451.899 157.337 452.444C158.155 453.958 159.002 455.684 159.911 457.546C161.425 460.862 163.181 464.601 164.786 468.81C165.225 469.93 165.634 471.142 166.058 472.323C164.937 470.491 163.348 467.993 163.166 467.781C159.85 463.647 151.054 457.607 145.437 459.726C144.525 460.105 143.703 460.671 143.025 461.387C142.346 462.104 141.826 462.955 141.497 463.886C141.169 464.817 141.04 465.806 141.119 466.79C141.198 467.774 141.482 468.731 141.955 469.597C143.832 473.352 148.601 475.335 152.553 476.062C156.504 476.789 165.013 474.836 166.845 474.382C167.753 477.001 168.616 479.711 169.358 482.588C170.769 487.781 171.706 493.092 172.159 498.454C172.159 498.757 172.159 499.09 172.159 499.393C171.765 498.394 169.131 493.049 168.949 492.701C166.103 488.159 157.958 481.24 152.205 482.739C151.255 483.013 150.375 483.485 149.62 484.122C148.866 484.76 148.254 485.55 147.825 486.44C147.397 487.33 147.161 488.301 147.133 489.288C147.105 490.276 147.285 491.258 147.663 492.171C149.177 496.108 153.719 498.621 157.443 499.741C161.818 501.058 171.796 499.65 172.174 499.605C172.479 504.956 172.443 510.322 172.068 515.668C171.796 519.635 171.372 523.632 170.902 527.644C170.357 526.357 167.874 521.391 167.723 521.058C164.877 516.516 156.731 509.597 150.978 511.096C150.029 511.37 149.148 511.842 148.394 512.48C147.639 513.117 147.028 513.907 146.599 514.797C146.17 515.687 145.934 516.658 145.906 517.645C145.878 518.633 146.059 519.615 146.436 520.528C147.95 524.465 152.492 526.963 156.217 528.098C160.486 529.37 170.055 528.098 170.872 527.962C170.645 529.779 170.448 531.611 170.221 533.428C169.479 539.378 168.707 545.358 168.117 551.263C167.92 553.306 167.799 555.335 167.662 557.319C166.769 555.411 165.089 551.959 164.907 551.687C162.061 547.145 153.93 540.225 148.253 541.724C147.305 542.001 146.426 542.473 145.673 543.111C144.92 543.75 144.309 544.539 143.881 545.429C143.452 546.318 143.216 547.288 143.187 548.275C143.157 549.261 143.336 550.243 143.711 551.157C145.225 555.093 149.767 557.591 153.491 558.727C157.216 559.862 165.376 558.954 167.647 558.651C167.451 562.027 167.329 565.388 167.375 568.689C167.375 570.127 167.375 571.58 167.511 572.943L167.784 577.046C168.086 579.832 168.344 582.421 168.677 585.025C168.843 586.327 169.025 587.553 169.207 588.825C168.586 586.766 167.572 583.496 167.451 583.208C165.301 578.348 158.367 570.218 152.401 570.823C151.423 570.953 150.483 571.287 149.642 571.803C148.801 572.319 148.078 573.007 147.52 573.82C146.962 574.634 146.581 575.556 146.402 576.526C146.223 577.497 146.25 578.494 146.482 579.453C147.329 583.571 151.417 586.736 155.005 588.431C158.957 590.309 168.283 590.505 169.434 590.521C169.873 593.639 170.327 596.652 170.812 599.483C172.326 608.401 173.84 615.789 175.081 620.937C176.323 626.084 177.08 629.022 177.08 629.022C177.265 629.516 177.631 629.922 178.104 630.157C178.577 630.392 179.121 630.44 179.627 630.29C180.134 630.141 180.565 629.805 180.834 629.35C181.102 628.896 181.189 628.357 181.077 627.841C181.077 627.841 180.153 625.282 178.866 620.195Z" fill="#009FA9"/>
<path d="M167.284 473.458C167.284 473.458 177.14 469.976 180.456 466.721C183.287 463.935 186.133 459.62 185.603 455.457C185.511 454.473 185.212 453.519 184.727 452.658C184.241 451.798 183.58 451.049 182.786 450.46C181.992 449.872 181.083 449.457 180.118 449.243C179.153 449.029 178.154 449.021 177.186 449.219C171.402 450.566 167.435 460.528 166.996 465.873C166.951 466.312 167.178 473.503 167.284 473.458Z" fill="#009FA9"/>
<path d="M173.189 622.33C169.328 618.817 163.878 613.7 157.61 607.28C155.808 605.433 153.915 603.45 152.008 601.391C152.795 600.543 159.139 593.715 160.547 589.582C161.819 585.827 162.394 580.695 160.032 577.212C159.506 576.378 158.81 575.663 157.989 575.115C157.168 574.568 156.241 574.199 155.269 574.033C154.296 573.868 153.299 573.909 152.344 574.154C151.388 574.399 150.494 574.843 149.722 575.456C145.18 579.271 146.133 589.96 148.132 594.866C148.253 595.184 150.191 598.742 151.16 600.528C149.994 599.287 148.844 598.045 147.663 596.713C145.952 594.835 144.211 592.776 142.5 590.808L139.926 587.598C139.033 586.524 138.321 585.388 137.489 584.283C136.308 582.633 135.172 580.861 134.037 579.09C136.065 577.47 141.94 572.58 143.711 569.173C145.482 565.767 146.89 560.664 145.074 556.879C144.68 555.974 144.101 555.161 143.372 554.494C142.643 553.827 141.782 553.322 140.845 553.01C139.908 552.699 138.916 552.589 137.933 552.687C136.95 552.784 135.999 553.089 135.142 553.579C130.055 556.607 129.404 567.356 130.6 572.519C130.6 572.701 131.024 573.761 131.478 575.017C130.418 573.261 129.358 571.52 128.344 569.703C125.483 564.555 122.727 559.241 119.941 553.912C119.366 552.807 118.775 551.702 118.185 550.596C119.896 549.234 126.3 543.995 128.162 540.422C130.025 536.849 131.327 531.914 129.525 528.129C129.132 527.223 128.552 526.41 127.823 525.743C127.095 525.076 126.234 524.571 125.296 524.26C124.359 523.948 123.367 523.838 122.384 523.936C121.401 524.034 120.45 524.338 119.593 524.828C114.506 527.856 113.855 538.605 115.051 543.768C115.051 543.965 115.551 545.282 116.065 546.645C114.551 543.768 112.916 540.937 111.266 538.151C108.436 533.383 105.296 528.805 101.864 524.45C102.485 523.965 110.115 517.985 112.174 514.018C114.006 510.506 115.354 505.509 113.537 501.724C113.145 500.817 112.566 500.003 111.838 499.335C111.11 498.666 110.25 498.159 109.312 497.846C108.375 497.533 107.382 497.422 106.399 497.519C105.415 497.616 104.463 497.919 103.605 498.409C98.5182 501.437 97.8672 512.201 99.0632 517.364C99.1541 517.727 100.819 522.315 101.455 523.935L101.349 523.768C97.8639 519.58 94.0189 515.704 89.8581 512.186C86.2028 509.039 82.3712 506.102 78.382 503.39C74.6575 500.846 71.0845 498.742 67.9202 496.91C66.1943 495.926 64.5894 495.063 63.1057 494.276H63.2117C63.3177 494.276 58.8514 488.568 58.5183 488.22C54.7787 484.45 45.3465 479.378 40.0475 482.073C39.1792 482.542 38.4196 483.189 37.8181 483.972C37.2167 484.755 36.787 485.656 36.557 486.616C36.3271 487.575 36.302 488.573 36.4834 489.543C36.6648 490.514 37.0487 491.435 37.6099 492.247C39.8809 495.79 44.8317 497.273 48.7984 497.576C52.7651 497.879 60.8044 495.123 62.7575 494.427C64.2715 495.275 65.9369 496.198 67.7234 497.273C70.8423 499.166 74.3547 501.346 78.0035 503.965C78.9876 504.662 80.002 505.479 81.0315 506.191C79.0936 505.282 76.3835 504.086 76.111 503.995C71.0542 502.375 60.3351 502.209 56.868 507.023C56.3181 507.843 55.9462 508.769 55.7765 509.741C55.6068 510.713 55.6429 511.711 55.8826 512.668C56.1224 513.625 56.5603 514.522 57.1682 515.3C57.776 516.077 58.5403 516.719 59.4116 517.182C63.0603 519.257 68.1322 518.303 71.7809 516.743C75.4297 515.184 81.5008 508.84 82.7877 507.462C84.983 509.143 87.1935 510.93 89.4039 512.913C93.4399 516.47 97.1489 520.382 100.486 524.601C100.683 524.843 100.85 525.116 101.047 525.373C100.153 524.752 94.9906 521.74 94.6575 521.573C89.8127 519.408 79.1693 518.06 75.2026 522.496C74.5645 523.249 74.0918 524.128 73.8152 525.075C73.5386 526.023 73.4643 527.018 73.5971 527.996C73.7298 528.973 74.0667 529.913 74.5859 530.752C75.1051 531.591 75.7949 532.312 76.6106 532.867C80.002 535.335 85.1647 534.942 88.9497 533.791C93.3252 532.474 100.88 525.797 101.168 525.555C104.384 529.846 107.318 534.342 109.949 539.014C111.917 542.466 113.764 546.039 115.581 549.612C114.415 548.84 109.661 546.039 109.298 545.873C104.453 543.708 93.8096 542.375 89.8278 546.796C89.1882 547.549 88.7146 548.428 88.4378 549.377C88.1611 550.325 88.0874 551.321 88.2217 552.3C88.3561 553.278 88.6953 554.218 89.2172 555.056C89.7392 555.895 90.4322 556.614 91.251 557.167C94.6423 559.65 99.7899 559.241 103.59 558.106C107.86 556.804 115.127 550.445 115.702 549.915C116.535 551.55 117.367 553.185 118.185 554.82C120.85 560.21 123.484 565.6 126.27 570.854C127.224 572.67 128.238 574.442 129.298 576.198C127.496 575.093 124.196 573.17 123.893 573.019C119.048 570.854 108.405 569.521 104.438 573.942C103.8 574.695 103.327 575.574 103.051 576.521C102.774 577.468 102.7 578.463 102.832 579.441C102.965 580.419 103.302 581.358 103.821 582.198C104.34 583.037 105.03 583.758 105.846 584.313C109.237 586.796 114.385 586.387 118.185 585.252C121.985 584.116 128.223 578.878 129.964 577.379C131.66 580.301 133.401 583.178 135.263 585.903C136.096 587.069 136.868 588.31 137.716 589.385L140.214 592.64C142 594.805 143.651 596.834 145.361 598.802L147.89 601.694C146.239 600.301 143.59 598.151 143.348 597.985C138.806 595.108 128.571 592.171 123.969 595.941C123.222 596.588 122.619 597.385 122.201 598.281C121.783 599.177 121.558 600.15 121.54 601.139C121.523 602.127 121.714 603.108 122.102 604.017C122.489 604.927 123.063 605.745 123.787 606.418C126.815 609.37 131.932 609.763 135.899 609.203C140.229 608.583 148.117 603.601 149.086 602.981C151.16 605.327 153.219 607.523 155.142 609.688C161.319 616.304 166.724 621.588 170.554 625.221C174.385 628.855 176.61 630.884 176.61 630.884C177.038 631.197 177.569 631.336 178.096 631.273C178.623 631.209 179.105 630.948 179.446 630.541C179.787 630.135 179.961 629.614 179.932 629.084C179.903 628.555 179.673 628.056 179.29 627.689C179.29 627.689 177.065 625.857 173.189 622.33Z" fill="#009FA9"/>
<path d="M82.5909 506.342C82.5909 506.342 88.874 498 89.8581 493.443C90.6908 489.567 90.6756 484.359 87.9353 481.21C87.3139 480.442 86.5383 479.814 85.6587 479.365C84.7791 478.916 83.8151 478.657 82.829 478.604C81.8428 478.551 80.8566 478.706 79.9341 479.058C79.0116 479.411 78.1733 479.953 77.4736 480.65C73.3858 484.965 75.5811 495.472 78.1246 500.12C78.382 500.528 82.5152 506.418 82.5909 506.342Z" fill="#009FA9"/>
<g opacity="0.1">
<path opacity="0.1" d="M178.866 620.195C177.579 615.123 175.838 607.856 174.173 598.999C173.688 596.471 173.204 593.761 172.75 590.99C173.87 590.717 182.939 588.537 186.376 585.857C189.509 583.42 192.825 579.453 192.78 575.259C192.802 574.278 192.618 573.302 192.24 572.396C191.861 571.49 191.298 570.673 190.584 569.999C189.871 569.324 189.024 568.806 188.098 568.479C187.173 568.151 186.189 568.022 185.21 568.098C179.29 568.764 174.218 578.212 173.098 583.42C173.098 583.753 172.674 587.78 172.553 589.839C172.265 588.159 171.993 586.493 171.735 584.737C171.357 582.224 171.024 579.544 170.69 576.955L170.327 572.867C170.161 571.474 170.191 570.127 170.115 568.749C170.115 566.721 170.115 564.616 170.115 562.527C172.704 562.284 180.289 561.452 183.65 559.574C187.011 557.697 190.993 554.23 191.569 550.082C191.741 549.109 191.706 548.11 191.466 547.152C191.227 546.193 190.787 545.296 190.177 544.518C189.567 543.741 188.8 543.101 187.926 542.641C187.051 542.18 186.09 541.909 185.104 541.845C179.169 541.603 172.719 550.172 170.887 555.169C170.887 555.32 170.554 556.41 170.251 557.712C170.251 555.668 170.418 553.64 170.569 551.565C171.024 545.691 171.659 539.741 172.28 533.761C172.401 532.504 172.507 531.263 172.644 530.021C174.824 529.824 183.045 528.992 186.557 526.993C190.07 524.995 193.9 521.649 194.491 517.485C194.661 516.512 194.624 515.515 194.383 514.557C194.143 513.6 193.703 512.703 193.093 511.927C192.484 511.15 191.717 510.51 190.844 510.049C189.971 509.587 189.011 509.315 188.026 509.249C182.091 509.022 175.626 517.591 173.809 522.572C173.809 522.754 173.416 524.086 173.067 525.525C173.355 522.269 173.597 519.03 173.749 515.805C174.032 510.254 173.941 504.69 173.476 499.151C174.248 499.151 183.908 498.303 187.829 496.123C191.281 494.2 195.172 490.778 195.747 486.615C195.92 485.642 195.885 484.643 195.645 483.685C195.405 482.726 194.966 481.829 194.356 481.051C193.746 480.274 192.979 479.634 192.104 479.174C191.23 478.713 190.269 478.442 189.282 478.379C183.348 478.151 176.898 486.721 175.066 491.702C174.945 492.05 173.794 496.789 173.446 498.5C173.446 498.5 173.446 498.363 173.446 498.303C172.866 492.884 171.802 487.529 170.267 482.3C168.911 477.628 167.289 473.038 165.407 468.553C163.711 464.374 161.894 460.65 160.259 457.364C159.366 455.593 158.518 454.003 157.7 452.504H157.821C157.927 452.504 157.337 445.343 157.246 444.934C156.201 439.726 151.19 430.279 145.134 429.598C144.155 429.521 143.171 429.651 142.245 429.978C141.32 430.305 140.473 430.823 139.76 431.498C139.046 432.173 138.482 432.989 138.104 433.896C137.726 434.802 137.542 435.777 137.564 436.759C137.564 440.953 140.819 444.919 143.953 447.357C147.087 449.794 155.308 451.899 157.337 452.444C158.155 453.958 159.002 455.684 159.911 457.546C161.425 460.862 163.181 464.601 164.786 468.81C165.225 469.93 165.634 471.142 166.058 472.323C164.937 470.491 163.348 467.993 163.166 467.781C159.85 463.647 151.054 457.607 145.437 459.726C144.525 460.105 143.703 460.671 143.025 461.387C142.346 462.104 141.826 462.955 141.497 463.886C141.169 464.817 141.04 465.806 141.119 466.79C141.198 467.774 141.482 468.731 141.955 469.597C143.832 473.352 148.601 475.335 152.553 476.062C156.504 476.789 165.013 474.836 166.845 474.382C167.753 477.001 168.616 479.711 169.358 482.588C170.769 487.781 171.706 493.092 172.159 498.454C172.159 498.757 172.159 499.09 172.159 499.393C171.765 498.394 169.131 493.049 168.949 492.701C166.103 488.159 157.958 481.24 152.205 482.739C151.255 483.013 150.375 483.485 149.62 484.122C148.866 484.76 148.254 485.55 147.825 486.44C147.397 487.33 147.161 488.301 147.133 489.288C147.105 490.276 147.285 491.258 147.663 492.171C149.177 496.108 153.719 498.621 157.443 499.741C161.818 501.058 171.796 499.65 172.174 499.605C172.479 504.956 172.443 510.322 172.068 515.668C171.796 519.635 171.372 523.632 170.902 527.644C170.357 526.357 167.874 521.391 167.723 521.058C164.877 516.516 156.731 509.597 150.978 511.096C150.029 511.37 149.148 511.842 148.394 512.48C147.639 513.117 147.028 513.907 146.599 514.797C146.17 515.687 145.934 516.658 145.906 517.645C145.878 518.633 146.059 519.615 146.436 520.528C147.95 524.465 152.492 526.963 156.217 528.098C160.486 529.37 170.055 528.098 170.872 527.962C170.645 529.779 170.448 531.611 170.221 533.428C169.479 539.378 168.707 545.358 168.117 551.263C167.92 553.306 167.799 555.335 167.662 557.319C166.769 555.411 165.089 551.959 164.907 551.687C162.061 547.145 153.93 540.225 148.253 541.724C147.305 542.001 146.426 542.473 145.673 543.111C144.92 543.75 144.309 544.539 143.881 545.429C143.452 546.318 143.216 547.288 143.187 548.275C143.157 549.261 143.336 550.243 143.711 551.157C145.225 555.093 149.767 557.591 153.491 558.727C157.216 559.862 165.376 558.954 167.647 558.651C167.451 562.027 167.329 565.388 167.375 568.689C167.375 570.127 167.375 571.58 167.511 572.943L167.784 577.046C168.086 579.832 168.344 582.421 168.677 585.025C168.843 586.327 169.025 587.553 169.207 588.825C168.586 586.766 167.572 583.496 167.451 583.208C165.301 578.348 158.367 570.218 152.401 570.823C151.423 570.953 150.483 571.287 149.642 571.803C148.801 572.319 148.078 573.007 147.52 573.82C146.962 574.634 146.581 575.556 146.402 576.526C146.223 577.497 146.25 578.494 146.482 579.453C147.329 583.571 151.417 586.736 155.005 588.431C158.957 590.309 168.283 590.505 169.434 590.521C169.873 593.639 170.327 596.652 170.812 599.483C172.326 608.401 173.84 615.789 175.081 620.937C176.323 626.084 177.08 629.022 177.08 629.022C177.265 629.516 177.631 629.922 178.104 630.157C178.577 630.392 179.121 630.44 179.627 630.29C180.134 630.141 180.565 629.805 180.834 629.35C181.102 628.896 181.189 628.357 181.077 627.841C181.077 627.841 180.153 625.282 178.866 620.195Z" fill="#202B30"/>
<path opacity="0.1" d="M167.284 473.458C167.284 473.458 177.14 469.976 180.456 466.721C183.287 463.935 186.133 459.62 185.603 455.457C185.511 454.473 185.212 453.519 184.727 452.658C184.241 451.798 183.58 451.049 182.786 450.46C181.992 449.872 181.083 449.457 180.118 449.243C179.153 449.029 178.154 449.021 177.186 449.219C171.402 450.566 167.435 460.528 166.996 465.873C166.951 466.312 167.178 473.503 167.284 473.458Z" fill="#202B30"/>
<path opacity="0.1" d="M173.189 622.33C169.328 618.817 163.878 613.7 157.61 607.28C155.808 605.433 153.915 603.45 152.008 601.391C152.795 600.543 159.139 593.715 160.547 589.582C161.819 585.827 162.394 580.695 160.032 577.212C159.506 576.378 158.81 575.663 157.989 575.115C157.168 574.568 156.241 574.199 155.269 574.033C154.296 573.868 153.299 573.909 152.344 574.154C151.388 574.399 150.494 574.843 149.722 575.456C145.18 579.271 146.133 589.96 148.132 594.866C148.253 595.184 150.191 598.742 151.16 600.528C149.994 599.287 148.844 598.045 147.663 596.713C145.952 594.835 144.211 592.776 142.5 590.808L139.926 587.598C139.033 586.524 138.321 585.388 137.489 584.283C136.308 582.633 135.172 580.861 134.037 579.09C136.065 577.47 141.94 572.58 143.711 569.173C145.482 565.767 146.89 560.664 145.074 556.879C144.68 555.974 144.101 555.161 143.372 554.494C142.643 553.827 141.782 553.322 140.845 553.01C139.908 552.699 138.916 552.589 137.933 552.687C136.95 552.784 135.999 553.089 135.142 553.579C130.055 556.607 129.404 567.356 130.6 572.519C130.6 572.701 131.024 573.761 131.478 575.017C130.418 573.261 129.358 571.52 128.344 569.703C125.483 564.555 122.727 559.241 119.941 553.912C119.366 552.807 118.775 551.702 118.185 550.596C119.896 549.234 126.3 543.995 128.162 540.422C130.025 536.849 131.327 531.914 129.525 528.129C129.132 527.223 128.552 526.41 127.823 525.743C127.095 525.076 126.234 524.571 125.296 524.26C124.359 523.948 123.367 523.838 122.384 523.936C121.401 524.034 120.45 524.338 119.593 524.828C114.506 527.856 113.855 538.605 115.051 543.768C115.051 543.965 115.551 545.282 116.065 546.645C114.551 543.768 112.916 540.937 111.266 538.151C108.436 533.383 105.296 528.805 101.864 524.45C102.485 523.965 110.115 517.985 112.174 514.018C114.006 510.506 115.354 505.509 113.537 501.724C113.145 500.817 112.566 500.003 111.838 499.335C111.11 498.666 110.25 498.159 109.312 497.846C108.375 497.533 107.382 497.422 106.399 497.519C105.415 497.616 104.463 497.919 103.605 498.409C98.5182 501.437 97.8672 512.201 99.0632 517.364C99.1541 517.727 100.819 522.315 101.455 523.935L101.349 523.768C97.8639 519.58 94.0189 515.704 89.8581 512.186C86.2028 509.039 82.3712 506.102 78.382 503.39C74.6575 500.846 71.0845 498.742 67.9202 496.91C66.1943 495.926 64.5894 495.063 63.1057 494.276H63.2117C63.3177 494.276 58.8514 488.568 58.5183 488.22C54.7787 484.45 45.3465 479.378 40.0475 482.073C39.1792 482.542 38.4196 483.189 37.8181 483.972C37.2167 484.755 36.787 485.656 36.557 486.616C36.3271 487.575 36.302 488.573 36.4834 489.543C36.6648 490.514 37.0487 491.435 37.6099 492.247C39.8809 495.79 44.8317 497.273 48.7984 497.576C52.7651 497.879 60.8044 495.123 62.7575 494.427C64.2715 495.275 65.9369 496.198 67.7234 497.273C70.8423 499.166 74.3547 501.346 78.0035 503.965C78.9876 504.662 80.002 505.479 81.0315 506.191C79.0936 505.282 76.3835 504.086 76.111 503.995C71.0542 502.375 60.3351 502.209 56.868 507.023C56.3181 507.843 55.9462 508.769 55.7765 509.741C55.6068 510.713 55.6429 511.711 55.8826 512.668C56.1224 513.625 56.5603 514.522 57.1682 515.3C57.776 516.077 58.5403 516.719 59.4116 517.182C63.0603 519.257 68.1322 518.303 71.7809 516.743C75.4297 515.184 81.5008 508.84 82.7877 507.462C84.983 509.143 87.1935 510.93 89.4039 512.913C93.4399 516.47 97.1489 520.382 100.486 524.601C100.683 524.843 100.85 525.116 101.047 525.373C100.153 524.752 94.9906 521.74 94.6575 521.573C89.8127 519.408 79.1693 518.06 75.2026 522.496C74.5645 523.249 74.0918 524.128 73.8152 525.075C73.5386 526.023 73.4643 527.018 73.5971 527.996C73.7298 528.973 74.0667 529.913 74.5859 530.752C75.1051 531.591 75.7949 532.312 76.6106 532.867C80.002 535.335 85.1647 534.942 88.9497 533.791C93.3252 532.474 100.88 525.797 101.168 525.555C104.384 529.846 107.318 534.342 109.949 539.014C111.917 542.466 113.764 546.039 115.581 549.612C114.415 548.84 109.661 546.039 109.298 545.873C104.453 543.708 93.8096 542.375 89.8278 546.796C89.1882 547.549 88.7146 548.428 88.4378 549.377C88.1611 550.325 88.0874 551.321 88.2217 552.3C88.3561 553.278 88.6953 554.218 89.2172 555.056C89.7392 555.895 90.4322 556.614 91.251 557.167C94.6423 559.65 99.7899 559.241 103.59 558.106C107.86 556.804 115.127 550.445 115.702 549.915C116.535 551.55 117.367 553.185 118.185 554.82C120.85 560.21 123.484 565.6 126.27 570.854C127.224 572.67 128.238 574.442 129.298 576.198C127.496 575.093 124.196 573.17 123.893 573.019C119.048 570.854 108.405 569.521 104.438 573.942C103.8 574.695 103.327 575.574 103.051 576.521C102.774 577.468 102.7 578.463 102.832 579.441C102.965 580.419 103.302 581.358 103.821 582.198C104.34 583.037 105.03 583.758 105.846 584.313C109.237 586.796 114.385 586.387 118.185 585.252C121.985 584.116 128.223 578.878 129.964 577.379C131.66 580.301 133.401 583.178 135.263 585.903C136.096 587.069 136.868 588.31 137.716 589.385L140.214 592.64C142 594.805 143.651 596.834 145.361 598.802L147.89 601.694C146.239 600.301 143.59 598.151 143.348 597.985C138.806 595.108 128.571 592.171 123.969 595.941C123.222 596.588 122.619 597.385 122.201 598.281C121.783 599.177 121.558 600.15 121.54 601.139C121.523 602.127 121.714 603.108 122.102 604.017C122.489 604.927 123.063 605.745 123.787 606.418C126.815 609.37 131.932 609.763 135.899 609.203C140.229 608.583 148.117 603.601 149.086 602.981C151.16 605.327 153.219 607.523 155.142 609.688C161.319 616.304 166.724 621.588 170.554 625.221C174.385 628.855 176.61 630.884 176.61 630.884C177.038 631.197 177.569 631.336 178.096 631.273C178.623 631.209 179.105 630.948 179.446 630.541C179.787 630.135 179.961 629.614 179.932 629.084C179.903 628.555 179.673 628.056 179.29 627.689C179.29 627.689 177.065 625.857 173.189 622.33Z" fill="#202B30"/>
<path opacity="0.1" d="M82.5909 506.342C82.5909 506.342 88.874 498 89.8581 493.443C90.6908 489.567 90.6756 484.359 87.9353 481.21C87.3139 480.442 86.5383 479.814 85.6587 479.365C84.7791 478.916 83.8151 478.657 82.829 478.604C81.8428 478.551 80.8566 478.706 79.9341 479.058C79.0116 479.411 78.1733 479.953 77.4736 480.65C73.3858 484.965 75.5811 495.472 78.1246 500.12C78.382 500.528 82.5152 506.418 82.5909 506.342Z" fill="#202B30"/>
</g>
<g opacity="0.1">
<path opacity="0.1" d="M217.488 509.749C216.428 504.631 215.02 497.288 213.734 488.416C213.355 485.858 212.992 483.148 212.659 480.347C213.809 480.135 222.954 478.348 226.512 475.805C229.752 473.519 233.234 469.749 233.37 465.51C233.448 464.518 233.315 463.52 232.979 462.584C232.642 461.647 232.111 460.793 231.419 460.077C230.728 459.361 229.893 458.801 228.968 458.432C228.044 458.064 227.052 457.896 226.058 457.94C220.123 458.348 214.642 467.553 213.355 472.716C213.279 473.049 212.749 477.046 212.522 479.105C212.326 477.41 212.129 475.729 211.947 473.973C211.675 471.429 211.463 468.75 211.251 466.145C211.251 464.783 211.114 463.42 211.054 462.042C210.993 460.665 211.054 459.317 211.054 457.924C211.054 455.896 211.205 453.791 211.311 451.702C213.915 451.581 221.531 451.081 224.937 449.355C228.344 447.629 232.507 444.344 233.279 440.271C233.491 439.309 233.499 438.314 233.303 437.349C233.107 436.383 232.711 435.47 232.141 434.667C231.57 433.864 230.838 433.189 229.991 432.687C229.144 432.184 228.201 431.864 227.223 431.747C221.304 431.263 214.475 439.529 212.447 444.435C212.371 444.586 212.053 445.676 211.675 446.963C211.856 444.919 212.023 442.875 212.28 440.816C212.977 434.987 213.885 429.052 214.763 423.102C214.945 421.861 215.111 420.635 215.293 419.393C217.473 419.287 225.74 418.833 229.328 417.031C232.916 415.23 236.898 412.005 237.67 407.947C237.884 406.985 237.894 405.989 237.699 405.023C237.504 404.057 237.108 403.142 236.537 402.339C235.967 401.535 235.233 400.86 234.385 400.358C233.537 399.856 232.593 399.538 231.614 399.423C225.679 398.939 218.866 407.205 216.822 412.111C216.822 412.277 216.368 413.625 215.944 415.018C216.383 411.793 216.762 408.553 217.049 405.343C217.582 399.809 217.739 394.245 217.519 388.689C218.291 388.689 227.98 388.311 231.977 386.312C235.535 384.541 239.547 381.301 240.319 377.228C240.534 376.267 240.544 375.272 240.349 374.306C240.153 373.341 239.757 372.428 239.186 371.625C238.615 370.823 237.882 370.15 237.034 369.649C236.186 369.148 235.242 368.832 234.263 368.72C228.329 368.22 221.516 376.502 219.472 381.392C219.32 381.74 217.958 386.433 217.549 388.114C217.541 388.048 217.541 387.982 217.549 387.917C217.198 382.48 216.368 377.084 215.066 371.793C213.923 367.062 212.508 362.401 210.827 357.834C209.313 353.595 207.662 349.795 206.179 346.449C205.361 344.632 204.574 342.997 203.832 341.483H203.953C204.059 341.483 203.771 334.291 203.711 333.913C202.893 328.674 198.245 319.015 192.371 318.076C191.392 317.946 190.396 318.024 189.449 318.305C188.501 318.586 187.624 319.063 186.874 319.706C186.124 320.349 185.518 321.143 185.095 322.036C184.673 322.929 184.444 323.902 184.423 324.889C184.18 329.083 187.314 333.186 190.327 335.76C193.34 338.334 201.485 340.847 203.484 341.422C204.226 343.027 204.998 344.738 205.83 346.645C207.238 350.022 208.858 353.837 210.206 358.106C210.584 359.242 210.948 360.483 211.326 361.664C210.282 359.787 208.813 357.228 208.631 357.001C205.497 352.717 196.913 346.282 191.281 348.159C190.352 348.495 189.504 349.022 188.792 349.707C188.081 350.392 187.522 351.22 187.152 352.136C186.782 353.051 186.609 354.035 186.645 355.022C186.681 356.009 186.924 356.978 187.36 357.864C189.07 361.695 193.749 363.92 197.625 364.783C201.5 365.646 210.13 364.117 211.977 363.754C212.765 366.403 213.491 369.143 214.127 372.05C215.272 377.274 215.951 382.589 216.156 387.932C216.156 388.25 216.156 388.568 216.156 388.886C215.793 387.856 213.431 382.421 213.234 382.058C210.584 377.516 202.757 370.112 196.943 371.354C195.982 371.587 195.08 372.019 194.297 372.624C193.513 373.228 192.866 373.991 192.398 374.863C191.929 375.734 191.65 376.694 191.577 377.681C191.505 378.668 191.641 379.659 191.977 380.589C193.264 384.571 197.685 387.281 201.425 388.583C205.74 390.097 215.777 389.128 216.141 389.098C216.223 394.459 215.955 399.82 215.338 405.146C214.899 409.098 214.294 413.08 213.643 417.062C213.143 415.744 210.963 410.688 210.751 410.339C208.117 405.797 200.289 398.409 194.475 399.651C193.516 399.883 192.616 400.316 191.834 400.919C191.052 401.523 190.406 402.284 189.937 403.154C189.469 404.023 189.189 404.982 189.115 405.967C189.041 406.952 189.176 407.941 189.51 408.871C190.796 412.868 195.202 415.563 198.957 416.88C203.166 418.394 212.78 417.47 213.597 417.395C213.294 419.196 213.007 421.013 212.704 422.83C211.69 428.734 210.66 434.669 209.827 440.544C209.525 442.588 209.313 444.601 209.101 446.6C208.298 444.647 206.769 441.134 206.603 440.846C203.953 436.304 196.126 428.901 190.312 430.158C189.352 430.391 188.452 430.823 187.67 431.426C186.888 432.03 186.242 432.791 185.774 433.661C185.305 434.531 185.025 435.489 184.952 436.474C184.878 437.459 185.012 438.448 185.346 439.378C186.633 443.375 191.039 446.07 194.793 447.387C198.548 448.704 206.648 448.129 208.934 447.947C208.586 451.308 208.329 454.654 208.223 457.955C208.223 459.378 208.086 460.846 208.223 462.209C208.359 463.572 208.223 464.965 208.313 466.312C208.495 469.113 208.631 471.717 208.858 474.321C208.964 475.638 209.086 476.88 209.207 478.151C208.692 476.062 207.814 472.746 207.693 472.459C205.77 467.508 199.154 459.075 193.204 459.423C192.22 459.511 191.266 459.804 190.403 460.284C189.54 460.764 188.787 461.42 188.193 462.209C187.6 462.998 187.178 463.903 186.956 464.866C186.735 465.828 186.717 466.826 186.905 467.796C187.572 471.929 191.447 475.275 195.021 477.137C198.896 479.181 208.207 479.787 209.343 479.862C209.646 482.981 209.979 486.024 210.327 488.855C211.447 497.849 212.704 505.282 213.658 510.49C214.612 515.699 215.293 518.651 215.293 518.651C215.339 518.936 215.443 519.209 215.6 519.452C215.756 519.695 215.962 519.903 216.203 520.063C216.444 520.222 216.715 520.33 217 520.379C217.285 520.429 217.577 520.418 217.857 520.349C218.138 520.28 218.401 520.153 218.63 519.976C218.859 519.8 219.049 519.578 219.188 519.325C219.327 519.071 219.412 518.792 219.437 518.504C219.463 518.216 219.428 517.926 219.335 517.652C219.335 517.652 218.548 514.881 217.488 509.749Z" fill="#202B30"/>
<path opacity="0.1" d="M212.401 362.648C212.401 362.648 222.394 359.62 225.861 356.486C228.889 353.852 231.917 349.658 231.478 345.465C231.43 344.479 231.176 343.514 230.73 342.633C230.285 341.752 229.659 340.975 228.894 340.352C228.128 339.73 227.24 339.275 226.287 339.019C225.334 338.762 224.337 338.709 223.363 338.864C217.519 339.954 213.113 349.734 212.447 355.003C212.386 355.457 212.295 362.679 212.401 362.648Z" fill="#202B30"/>
</g>
<path d="M537.684 547.523C537.881 594.957 575.625 633.261 575.625 633.261C575.625 633.261 613.051 594.639 612.839 547.205C612.627 499.771 574.974 461.467 574.974 461.467C574.974 461.467 537.472 500.089 537.684 547.523Z" fill="#009FA9"/>
<path d="M575.625 633.261L574.898 461.467" stroke="white" stroke-width="0.910297" stroke-miterlimit="10"/>
<path d="M575.156 522.527L554.035 504.253" stroke="white" stroke-width="0.910297" stroke-miterlimit="10"/>
<path d="M575.61 550.914L601.499 513.064" stroke="white" stroke-width="0.910297" stroke-miterlimit="10"/>
<path d="M575.352 567.281L544.164 539.696" stroke="white" stroke-width="0.910297" stroke-miterlimit="10"/>
<path d="M575.776 589.325L606.39 561.8" stroke="white" stroke-width="0.910297" stroke-miterlimit="10"/>
<path d="M575.852 608.355L551.734 589.43" stroke="white" stroke-width="0.910297" stroke-miterlimit="10"/>
<path d="M511.961 620.74C530.296 641.3 561.348 643.45 561.348 643.45C561.348 643.45 562.726 612.307 544.391 591.807C526.057 571.308 494.944 569.219 494.944 569.219C494.944 569.219 493.627 600.301 511.961 620.74Z" fill="#009FA9"/>
<path d="M561.408 643.389L495.005 569.158" stroke="white" stroke-width="0.910297" stroke-miterlimit="10"/>
<path d="M518.608 595.532L502.408 595.729" stroke="white" stroke-width="0.910297" stroke-miterlimit="10"/>
<path d="M529.72 607.674L526.39 581.3" stroke="white" stroke-width="0.910297" stroke-miterlimit="10"/>
<path d="M535.898 614.881L511.764 614.911" stroke="white" stroke-width="0.910297" stroke-miterlimit="10"/>
<path d="M544.573 624.268L547.268 600.558" stroke="white" stroke-width="0.910297" stroke-miterlimit="10"/>
<path d="M551.931 632.504L534.187 633.564" stroke="white" stroke-width="0.910297" stroke-miterlimit="10"/>
<path d="M607.586 590.748C588.509 610.566 588.751 641.739 588.751 641.739C588.751 641.739 619.91 640.785 638.986 620.967C658.062 601.149 657.82 569.976 657.82 569.976C657.82 569.976 626.662 570.929 607.586 590.748Z" fill="#009FA9"/>
<path d="M588.751 641.739L657.82 569.976" stroke="white" stroke-width="0.910297" stroke-miterlimit="10"/>
<path d="M633.278 595.486L631.87 579.347" stroke="white" stroke-width="0.910297" stroke-miterlimit="10"/>
<path d="M621.999 607.477L648.055 602.193" stroke="white" stroke-width="0.910297" stroke-miterlimit="10"/>
<path d="M615.277 614.184L613.445 590.112" stroke="white" stroke-width="0.910297" stroke-miterlimit="10"/>
<path d="M606.556 623.526L630.401 624.434" stroke="white" stroke-width="0.910297" stroke-miterlimit="10"/>
<path d="M598.895 631.474L596.503 613.851" stroke="white" stroke-width="0.910297" stroke-miterlimit="10"/>
<g opacity="0.1">
<path opacity="0.1" d="M537.684 547.523C537.881 594.957 575.625 633.261 575.625 633.261C575.625 633.261 613.051 594.639 612.839 547.205C612.627 499.771 574.974 461.467 574.974 461.467C574.974 461.467 537.472 500.089 537.684 547.523Z" fill="#202B30"/>
<path opacity="0.1" d="M511.961 620.74C530.296 641.3 561.348 643.45 561.348 643.45C561.348 643.45 562.726 612.307 544.391 591.807C526.057 571.308 494.944 569.219 494.944 569.219C494.944 569.219 493.627 600.301 511.961 620.74Z" fill="#202B30"/>
<path opacity="0.1" d="M607.585 590.748C588.509 610.566 588.751 641.739 588.751 641.739C588.751 641.739 619.909 640.785 638.986 620.967C658.062 601.149 657.82 569.976 657.82 569.976C657.82 569.976 626.662 570.929 607.585 590.748Z" fill="#202B30"/>
</g>
<path d="M548.434 160.151H174.96V640.861H548.434V160.151Z" fill="white" stroke="#202B30" stroke-width="0.987488" stroke-linecap="round" stroke-linejoin="round"/>
<g style="mix-blend-mode:multiply">
<path d="M234.536 160.151H174.96V640.861H234.536V160.151Z" fill="#009FA9"/>
</g>
<path d="M465.451 231.173H350.917V244.647H465.451V231.173Z" fill="#D9E1E3" stroke="#202B30" stroke-width="0.987488" stroke-linecap="round" stroke-linejoin="round"/>
<path d="M535.913 345.979H221.955V359.454H535.913V345.979Z" fill="#D9E1E3"/>
<path d="M535.913 531.172H221.955V544.646H535.913V531.172Z" fill="#D9E1E3"/>
<path d="M423.105 254.382H350.917V267.857H423.105V254.382Z" fill="#D9E1E3" stroke="#202B30" stroke-width="0.987488" stroke-linecap="round" stroke-linejoin="round"/>
<path d="M423.105 277.107H350.917V290.582H423.105V277.107Z" fill="#D9E1E3" stroke="#202B30" stroke-width="0.987488" stroke-linecap="round" stroke-linejoin="round"/>
<path d="M340.985 374.291H333.552V381.725H340.985V374.291Z" fill="#D9E1E3" stroke="#202B30" stroke-width="0.987488" stroke-linecap="round" stroke-linejoin="round"/>
<path d="M340.985 469.9H333.552V477.334H340.985V469.9Z" fill="#D9E1E3" stroke="#202B30" stroke-width="0.987488" stroke-linecap="round" stroke-linejoin="round"/>
<path d="M445.89 374.291H438.457V381.725H445.89V374.291Z" fill="#D9E1E3" stroke="#202B30" stroke-width="0.987488" stroke-linecap="round" stroke-linejoin="round"/>
<path d="M445.89 469.9H438.457V477.334H445.89V469.9Z" fill="#D9E1E3" stroke="#202B30" stroke-width="0.987488" stroke-linecap="round" stroke-linejoin="round"/>
<path d="M548.434 160.151H174.96V184.602H548.434V160.151Z" fill="#202B30" stroke="#202B30" stroke-width="0.987488" stroke-linecap="round" stroke-linejoin="round"/>
<path d="M418.775 379.454H353.037C352.475 379.454 351.935 379.23 351.538 378.833C351.14 378.435 350.917 377.896 350.917 377.334C350.917 376.772 351.14 376.233 351.538 375.835C351.935 375.438 352.475 375.215 353.037 375.215H418.775C419.337 375.215 419.876 375.438 420.273 375.835C420.671 376.233 420.894 376.772 420.894 377.334C420.894 377.896 420.671 378.435 420.273 378.833C419.876 379.23 419.337 379.454 418.775 379.454Z" fill="#202B30"/>
<path d="M418.775 390.067H353.037C352.473 390.063 351.934 389.836 351.537 389.436C351.14 389.036 350.917 388.496 350.917 387.932C350.917 387.37 351.14 386.831 351.538 386.433C351.935 386.036 352.475 385.813 353.037 385.813H418.775C419.337 385.813 419.876 386.036 420.273 386.433C420.671 386.831 420.894 387.37 420.894 387.932C420.894 388.496 420.671 389.036 420.274 389.436C419.877 389.836 419.338 390.063 418.775 390.067Z" fill="#202B30"/>
<path d="M418.775 400.665H353.037C352.475 400.665 351.935 400.442 351.538 400.044C351.14 399.647 350.917 399.107 350.917 398.545C350.917 397.983 351.14 397.444 351.538 397.047C351.935 396.649 352.475 396.426 353.037 396.426H418.775C419.337 396.426 419.876 396.649 420.273 397.047C420.671 397.444 420.894 397.983 420.894 398.545C420.894 399.107 420.671 399.647 420.273 400.044C419.876 400.442 419.337 400.665 418.775 400.665Z" fill="#202B30"/>
<path d="M418.775 411.263H353.037C352.475 411.263 351.935 411.04 351.538 410.642C351.14 410.245 350.917 409.705 350.917 409.143C350.917 408.581 351.14 408.042 351.538 407.645C351.935 407.247 352.475 407.024 353.037 407.024H418.775C419.337 407.024 419.876 407.247 420.273 407.645C420.671 408.042 420.894 408.581 420.894 409.143C420.894 409.705 420.671 410.245 420.273 410.642C419.876 411.04 419.337 411.263 418.775 411.263Z" fill="#202B30"/>
<path d="M418.775 421.861H353.037C352.475 421.861 351.935 421.638 351.538 421.24C351.14 420.843 350.917 420.304 350.917 419.741C350.917 419.179 351.14 418.64 351.538 418.243C351.935 417.845 352.475 417.622 353.037 417.622H418.775C419.337 417.622 419.876 417.845 420.273 418.243C420.671 418.64 420.894 419.179 420.894 419.741C420.894 420.304 420.671 420.843 420.273 421.24C419.876 421.638 419.337 421.861 418.775 421.861Z" fill="#202B30"/>
<path d="M518.214 379.454H452.476C451.914 379.454 451.375 379.23 450.977 378.833C450.58 378.435 450.357 377.896 450.357 377.334C450.357 376.772 450.58 376.233 450.977 375.835C451.375 375.438 451.914 375.215 452.476 375.215H518.214C518.776 375.215 519.315 375.438 519.713 375.835C520.11 376.233 520.334 376.772 520.334 377.334C520.334 377.896 520.11 378.435 519.713 378.833C519.315 379.23 518.776 379.454 518.214 379.454Z" fill="#202B30"/>
<path d="M518.214 390.067H452.476C451.913 390.063 451.374 389.836 450.977 389.436C450.579 389.036 450.357 388.496 450.357 387.932C450.357 387.37 450.58 386.831 450.977 386.433C451.375 386.036 451.914 385.813 452.476 385.813H518.214C518.776 385.813 519.315 386.036 519.713 386.433C520.11 386.831 520.334 387.37 520.334 387.932C520.334 388.496 520.111 389.036 519.714 389.436C519.317 389.836 518.778 390.063 518.214 390.067Z" fill="#202B30"/>
<path d="M518.214 400.665H452.476C451.914 400.665 451.375 400.442 450.977 400.044C450.58 399.647 450.357 399.107 450.357 398.545C450.357 397.983 450.58 397.444 450.977 397.047C451.375 396.649 451.914 396.426 452.476 396.426H518.214C518.776 396.426 519.315 396.649 519.713 397.047C520.11 397.444 520.334 397.983 520.334 398.545C520.334 399.107 520.11 399.647 519.713 400.044C519.315 400.442 518.776 400.665 518.214 400.665Z" fill="#202B30"/>
<path d="M518.214 411.263H452.476C451.914 411.263 451.375 411.04 450.977 410.642C450.58 410.245 450.357 409.705 450.357 409.143C450.357 408.581 450.58 408.042 450.977 407.645C451.375 407.247 451.914 407.024 452.476 407.024H518.214C518.776 407.024 519.315 407.247 519.713 407.645C520.11 408.042 520.334 408.581 520.334 409.143C520.334 409.705 520.11 410.245 519.713 410.642C519.315 411.04 518.776 411.263 518.214 411.263Z" fill="#202B30"/>
<path d="M518.214 421.861H452.476C451.914 421.861 451.375 421.638 450.977 421.24C450.58 420.843 450.357 420.304 450.357 419.741C450.357 419.179 450.58 418.64 450.977 418.243C451.375 417.845 451.914 417.622 452.476 417.622H518.214C518.776 417.622 519.315 417.845 519.713 418.243C520.11 418.64 520.334 419.179 520.334 419.741C520.334 420.304 520.11 420.843 519.713 421.24C519.315 421.638 518.776 421.861 518.214 421.861Z" fill="#202B30"/>
<path d="M418.775 473.473H353.037C352.473 473.469 351.934 473.243 351.537 472.843C351.14 472.443 350.917 471.902 350.917 471.338C350.917 470.776 351.14 470.237 351.538 469.84C351.935 469.442 352.475 469.219 353.037 469.219H418.775C419.337 469.219 419.876 469.442 420.273 469.84C420.671 470.237 420.894 470.776 420.894 471.338C420.894 471.902 420.671 472.443 420.274 472.843C419.877 473.243 419.338 473.469 418.775 473.473Z" fill="#202B30"/>
<path d="M418.775 484.071H353.037C352.475 484.071 351.935 483.848 351.538 483.45C351.14 483.053 350.917 482.514 350.917 481.952C350.917 481.389 351.14 480.85 351.538 480.453C351.935 480.055 352.475 479.832 353.037 479.832H418.775C419.337 479.832 419.876 480.055 420.273 480.453C420.671 480.85 420.894 481.389 420.894 481.952C420.894 482.514 420.671 483.053 420.273 483.45C419.876 483.848 419.337 484.071 418.775 484.071Z" fill="#202B30"/>
<path d="M418.775 494.669H353.037C352.475 494.669 351.935 494.446 351.538 494.048C351.14 493.651 350.917 493.112 350.917 492.55C350.917 491.987 351.14 491.448 351.538 491.051C351.935 490.653 352.475 490.43 353.037 490.43H418.775C419.337 490.43 419.876 490.653 420.273 491.051C420.671 491.448 420.894 491.987 420.894 492.55C420.894 493.112 420.671 493.651 420.273 494.048C419.876 494.446 419.337 494.669 418.775 494.669Z" fill="#202B30"/>
<path d="M418.775 505.267H353.037C352.475 505.267 351.935 505.044 351.538 504.646C351.14 504.249 350.917 503.71 350.917 503.148C350.917 502.586 351.14 502.046 351.538 501.649C351.935 501.251 352.475 501.028 353.037 501.028H418.775C419.337 501.028 419.876 501.251 420.273 501.649C420.671 502.046 420.894 502.586 420.894 503.148C420.894 503.71 420.671 504.249 420.273 504.646C419.876 505.044 419.337 505.267 418.775 505.267Z" fill="#202B30"/>
<path d="M418.775 515.88H353.037C352.475 515.88 351.935 515.657 351.538 515.26C351.14 514.862 350.917 514.323 350.917 513.761C350.917 513.199 351.14 512.659 351.538 512.262C351.935 511.864 352.475 511.641 353.037 511.641H418.775C419.337 511.641 419.876 511.864 420.273 512.262C420.671 512.659 420.894 513.199 420.894 513.761C420.894 514.323 420.671 514.862 420.273 515.26C419.876 515.657 419.337 515.88 418.775 515.88Z" fill="#202B30"/>
<path d="M518.214 473.473H452.476C451.913 473.469 451.374 473.243 450.977 472.843C450.579 472.443 450.357 471.902 450.357 471.338C450.357 470.776 450.58 470.237 450.977 469.84C451.375 469.442 451.914 469.219 452.476 469.219H518.214C518.776 469.219 519.315 469.442 519.713 469.84C520.11 470.237 520.334 470.776 520.334 471.338C520.334 471.902 520.111 472.443 519.714 472.843C519.317 473.243 518.778 473.469 518.214 473.473Z" fill="#202B30"/>
<path d="M518.214 484.071H452.476C451.914 484.071 451.375 483.848 450.977 483.45C450.58 483.053 450.357 482.514 450.357 481.952C450.357 481.389 450.58 480.85 450.977 480.453C451.375 480.055 451.914 479.832 452.476 479.832H518.214C518.776 479.832 519.315 480.055 519.713 480.453C520.11 480.85 520.334 481.389 520.334 481.952C520.334 482.514 520.11 483.053 519.713 483.45C519.315 483.848 518.776 484.071 518.214 484.071Z" fill="#202B30"/>
<path d="M518.214 494.669H452.476C451.914 494.669 451.375 494.446 450.977 494.048C450.58 493.651 450.357 493.112 450.357 492.55C450.357 491.987 450.58 491.448 450.977 491.051C451.375 490.653 451.914 490.43 452.476 490.43H518.214C518.776 490.43 519.315 490.653 519.713 491.051C520.11 491.448 520.334 491.987 520.334 492.55C520.334 493.112 520.11 493.651 519.713 494.048C519.315 494.446 518.776 494.669 518.214 494.669Z" fill="#202B30"/>
<path d="M518.214 505.267H452.476C451.914 505.267 451.375 505.044 450.977 504.646C450.58 504.249 450.357 503.71 450.357 503.148C450.357 502.586 450.58 502.046 450.977 501.649C451.375 501.251 451.914 501.028 452.476 501.028H518.214C518.776 501.028 519.315 501.251 519.713 501.649C520.11 502.046 520.334 502.586 520.334 503.148C520.334 503.71 520.11 504.249 519.713 504.646C519.315 505.044 518.776 505.267 518.214 505.267Z" fill="#202B30"/>
<path d="M518.214 515.88H452.476C451.914 515.88 451.375 515.657 450.977 515.26C450.58 514.862 450.357 514.323 450.357 513.761C450.357 513.199 450.58 512.659 450.977 512.262C451.375 511.864 451.914 511.641 452.476 511.641H518.214C518.776 511.641 519.315 511.864 519.713 512.262C520.11 512.659 520.334 513.199 520.334 513.761C520.334 514.323 520.11 514.862 519.713 515.26C519.315 515.657 518.776 515.88 518.214 515.88Z" fill="#202B30"/>
<path d="M518.214 564.268H452.476C451.914 564.268 451.375 564.044 450.977 563.647C450.58 563.249 450.357 562.71 450.357 562.148C450.357 561.586 450.58 561.047 450.977 560.649C451.375 560.252 451.914 560.029 452.476 560.029H518.214C518.776 560.029 519.315 560.252 519.713 560.649C520.11 561.047 520.334 561.586 520.334 562.148C520.334 562.71 520.11 563.249 519.713 563.647C519.315 564.044 518.776 564.268 518.214 564.268Z" fill="#202B30"/>
<path d="M518.214 574.866H452.476C451.914 574.866 451.375 574.643 450.977 574.245C450.58 573.848 450.357 573.308 450.357 572.746C450.357 572.184 450.58 571.645 450.977 571.247C451.375 570.85 451.914 570.627 452.476 570.627H518.214C518.776 570.627 519.315 570.85 519.713 571.247C520.11 571.645 520.334 572.184 520.334 572.746C520.334 573.308 520.11 573.848 519.713 574.245C519.315 574.643 518.776 574.866 518.214 574.866Z" fill="#202B30"/>
<path d="M518.214 585.479H452.476C451.914 585.479 451.375 585.256 450.977 584.858C450.58 584.461 450.357 583.921 450.357 583.359C450.357 582.797 450.58 582.258 450.977 581.861C451.375 581.463 451.914 581.24 452.476 581.24H518.214C518.776 581.24 519.315 581.463 519.713 581.861C520.11 582.258 520.334 582.797 520.334 583.359C520.334 583.921 520.11 584.461 519.713 584.858C519.315 585.256 518.776 585.479 518.214 585.479Z" fill="#202B30"/>
<path d="M518.214 591.838H452.476C451.306 591.838 450.357 592.787 450.357 593.957C450.357 595.128 451.306 596.077 452.476 596.077H518.214C519.385 596.077 520.334 595.128 520.334 593.957C520.334 592.787 519.385 591.838 518.214 591.838Z" fill="#202B30"/>
<path d="M518.214 606.675H452.476C451.914 606.675 451.375 606.452 450.977 606.054C450.58 605.657 450.357 605.117 450.357 604.555C450.357 603.993 450.58 603.454 450.977 603.057C451.375 602.659 451.914 602.436 452.476 602.436H518.214C518.776 602.436 519.315 602.659 519.713 603.057C520.11 603.454 520.334 603.993 520.334 604.555C520.334 605.117 520.11 605.657 519.713 606.054C519.315 606.452 518.776 606.675 518.214 606.675Z" fill="#202B30"/>
<path d="M511.855 440.952C509.851 440.953 507.913 441.664 506.383 442.958C504.853 444.252 503.831 446.047 503.498 448.023H493.354C492.983 446.086 491.949 444.339 490.429 443.083C488.909 441.827 486.999 441.14 485.027 441.14C483.055 441.14 481.145 441.827 479.625 443.083C478.106 444.339 477.071 446.086 476.7 448.023H466.557C466.186 446.086 465.151 444.339 463.631 443.083C462.112 441.827 460.201 441.14 458.23 441.14C456.258 441.14 454.347 441.827 452.828 443.083C451.308 444.339 450.273 446.086 449.903 448.023H439.622C439.268 446.073 438.241 444.308 436.719 443.038C435.197 441.768 433.278 441.072 431.295 441.072C429.313 441.072 427.394 441.768 425.872 443.038C424.35 444.308 423.323 446.073 422.968 448.023H412.81C412.455 446.073 411.428 444.308 409.906 443.038C408.384 441.768 406.465 441.072 404.483 441.072C402.5 441.072 400.581 441.768 399.059 443.038C397.537 444.308 396.51 446.073 396.156 448.023H385.997C385.642 446.073 384.615 444.308 383.093 443.038C381.571 441.768 379.652 441.072 377.67 441.072C375.687 441.072 373.768 441.768 372.246 443.038C370.724 444.308 369.697 446.073 369.343 448.023H359.184C358.829 445.927 357.7 444.041 356.02 442.738C354.34 441.436 352.232 440.812 350.114 440.99C347.996 441.168 346.022 442.135 344.583 443.7C343.144 445.265 342.346 447.313 342.346 449.438C342.346 451.564 343.144 453.612 344.583 455.177C346.022 456.742 347.996 457.709 350.114 457.887C352.232 458.065 354.34 457.441 356.02 456.138C357.7 454.836 358.829 452.95 359.184 450.854H369.343C369.697 452.804 370.724 454.568 372.246 455.839C373.768 457.109 375.687 457.805 377.67 457.805C379.652 457.805 381.571 457.109 383.093 455.839C384.615 454.568 385.642 452.804 385.997 450.854H396.156C396.51 452.804 397.537 454.568 399.059 455.839C400.581 457.109 402.5 457.805 404.483 457.805C406.465 457.805 408.384 457.109 409.906 455.839C411.428 454.568 412.455 452.804 412.81 450.854H422.968C423.323 452.804 424.35 454.568 425.872 455.839C427.394 457.109 429.313 457.805 431.295 457.805C433.278 457.805 435.197 457.109 436.719 455.839C438.241 454.568 439.268 452.804 439.622 450.854H449.781C450.152 452.791 451.187 454.537 452.707 455.794C454.226 457.05 456.137 457.737 458.108 457.737C460.08 457.737 461.99 457.05 463.51 455.794C465.03 454.537 466.064 452.791 466.435 450.854H476.579C476.95 452.791 477.985 454.537 479.504 455.794C481.024 457.05 482.934 457.737 484.906 457.737C486.878 457.737 488.788 457.05 490.308 455.794C491.828 454.537 492.862 452.791 493.233 450.854H503.377C503.648 452.447 504.369 453.93 505.455 455.127C506.54 456.324 507.946 457.186 509.505 457.611C511.064 458.036 512.712 458.006 514.255 457.526C515.798 457.046 517.172 456.134 518.214 454.899C519.257 453.664 519.924 452.157 520.139 450.555C520.353 448.954 520.105 447.324 519.424 445.858C518.743 444.393 517.658 443.152 516.295 442.283C514.933 441.414 513.35 440.952 511.734 440.952H511.855Z" fill="#202B30"/>
<path d="M314.097 560.816C311.269 560.813 308.505 561.649 306.152 563.217C303.8 564.786 301.966 567.017 300.882 569.628C299.798 572.239 299.512 575.114 300.062 577.887C300.612 580.66 301.972 583.208 303.97 585.209C305.968 587.209 308.515 588.572 311.288 589.124C314.06 589.677 316.935 589.395 319.547 588.314C322.16 587.232 324.393 585.401 325.964 583.05C327.535 580.699 328.374 577.935 328.374 575.108C328.376 573.232 328.008 571.374 327.291 569.64C326.575 567.906 325.523 566.33 324.197 565.003C322.871 563.676 321.297 562.623 319.564 561.904C317.831 561.186 315.973 560.816 314.097 560.816ZM314.097 582.224C312.685 582.227 311.304 581.811 310.129 581.028C308.954 580.246 308.038 579.132 307.496 577.829C306.955 576.525 306.812 575.09 307.087 573.705C307.362 572.321 308.041 571.049 309.039 570.051C310.037 569.052 311.309 568.373 312.694 568.098C314.079 567.824 315.514 567.966 316.817 568.508C318.121 569.049 319.235 569.966 320.017 571.141C320.799 572.316 321.215 573.696 321.212 575.108C321.208 576.994 320.457 578.802 319.124 580.135C317.79 581.469 315.983 582.22 314.097 582.224Z" fill="#D9E1E3" stroke="#202B30" stroke-width="0.987488" stroke-linecap="round" stroke-linejoin="round"/>
<path d="M318.351 580.786L325.164 584.101C326.864 582.011 327.938 579.482 328.262 576.807C328.585 574.132 328.145 571.42 326.992 568.985C325.839 566.549 324.021 564.49 321.747 563.044C319.473 561.599 316.837 560.826 314.142 560.816V567.977C315.629 567.993 317.074 568.474 318.273 569.353C319.473 570.232 320.367 571.465 320.829 572.878C321.292 574.292 321.301 575.814 320.853 577.233C320.406 578.651 319.526 579.893 318.336 580.786H318.351Z" fill="#202B30" stroke="#202B30" stroke-width="0.987488" stroke-linecap="round" stroke-linejoin="round"/>
<path d="M320.97 607.114H307.344C306.898 607.116 306.455 607.03 306.042 606.86C305.629 606.691 305.253 606.441 304.936 606.126C304.62 605.811 304.369 605.437 304.197 605.024C304.026 604.612 303.938 604.169 303.938 603.723C303.938 602.819 304.297 601.953 304.935 601.314C305.574 600.675 306.441 600.316 307.344 600.316H320.97C321.874 600.316 322.74 600.675 323.379 601.314C324.018 601.953 324.377 602.819 324.377 603.723C324.377 604.169 324.288 604.612 324.117 605.024C323.946 605.437 323.695 605.811 323.378 606.126C323.062 606.441 322.686 606.691 322.273 606.86C321.859 607.03 321.417 607.116 320.97 607.114Z" fill="#D9E1E3" stroke="#202B30" stroke-width="0.987488" stroke-linecap="round" stroke-linejoin="round"/>
<path d="M356.685 560.816C353.859 560.816 351.096 561.654 348.745 563.225C346.395 564.795 344.563 567.027 343.481 569.639C342.399 572.25 342.116 575.124 342.668 577.896C343.219 580.669 344.581 583.215 346.579 585.214C348.578 587.213 351.125 588.574 353.897 589.126C356.67 589.677 359.543 589.394 362.155 588.312C364.766 587.231 366.999 585.399 368.569 583.048C370.139 580.698 370.978 577.935 370.978 575.108C370.98 573.231 370.611 571.371 369.894 569.636C369.176 567.901 368.124 566.325 366.796 564.998C365.468 563.67 363.892 562.617 362.157 561.9C360.422 561.182 358.563 560.814 356.685 560.816ZM356.685 582.224C355.274 582.224 353.895 581.805 352.722 581.021C351.549 580.237 350.635 579.122 350.096 577.818C349.557 576.514 349.416 575.08 349.693 573.696C349.969 572.312 350.65 571.042 351.649 570.045C352.647 569.049 353.919 568.371 355.304 568.097C356.688 567.824 358.122 567.967 359.425 568.509C360.728 569.051 361.84 569.968 362.622 571.142C363.404 572.317 363.819 573.697 363.816 575.108C363.816 576.044 363.632 576.97 363.273 577.835C362.915 578.699 362.389 579.484 361.727 580.145C361.065 580.806 360.278 581.33 359.413 581.687C358.548 582.043 357.621 582.226 356.685 582.224Z" fill="#D9E1E3" stroke="#202B30" stroke-width="0.987488" stroke-linecap="round" stroke-linejoin="round"/>
<path d="M370.902 573.609C370.527 570.113 368.878 566.876 366.27 564.517C363.662 562.158 360.278 560.84 356.761 560.816V567.977C358.639 567.997 360.434 568.757 361.755 570.092C363.076 571.427 363.817 573.23 363.816 575.108C363.801 575.382 363.771 575.655 363.726 575.926L370.902 573.609Z" fill="#202B30" stroke="#202B30" stroke-width="0.987488" stroke-linecap="round" stroke-linejoin="round"/>
<path d="M363.499 607.114H349.873C349.426 607.116 348.983 607.03 348.57 606.86C348.157 606.691 347.781 606.441 347.465 606.126C347.148 605.811 346.897 605.437 346.726 605.024C346.554 604.612 346.466 604.169 346.466 603.723C346.466 602.819 346.825 601.953 347.464 601.314C348.103 600.675 348.969 600.316 349.873 600.316H363.499C364.402 600.316 365.268 600.675 365.907 601.314C366.546 601.953 366.905 602.819 366.905 603.723C366.905 604.169 366.817 604.612 366.645 605.024C366.474 605.437 366.223 605.811 365.906 606.126C365.59 606.441 365.214 606.691 364.801 606.86C364.388 607.03 363.945 607.116 363.499 607.114Z" fill="#D9E1E3" stroke="#202B30" stroke-width="0.987488" stroke-linecap="round" stroke-linejoin="round"/>
<path d="M399.532 560.816C396.705 560.816 393.942 561.654 391.591 563.225C389.241 564.795 387.409 567.027 386.327 569.639C385.246 572.25 384.963 575.124 385.514 577.896C386.066 580.669 387.427 583.215 389.426 585.214C391.424 587.213 393.971 588.574 396.743 589.126C399.516 589.677 402.39 589.394 405.001 588.312C407.613 587.231 409.845 585.399 411.415 583.048C412.986 580.698 413.824 577.935 413.824 575.108C413.826 573.231 413.458 571.371 412.74 569.636C412.022 567.901 410.97 566.325 409.642 564.998C408.315 563.67 406.738 562.617 405.003 561.9C403.269 561.182 401.409 560.814 399.532 560.816ZM399.532 582.224C398.121 582.224 396.741 581.805 395.568 581.021C394.395 580.237 393.481 579.122 392.942 577.818C392.403 576.514 392.263 575.08 392.539 573.696C392.815 572.312 393.496 571.042 394.495 570.045C395.494 569.049 396.766 568.371 398.15 568.097C399.534 567.824 400.968 567.967 402.271 568.509C403.574 569.051 404.686 569.968 405.468 571.142C406.25 572.317 406.666 573.697 406.663 575.108C406.663 576.044 406.478 576.97 406.12 577.835C405.761 578.699 405.235 579.484 404.573 580.145C403.911 580.806 403.125 581.33 402.259 581.687C401.394 582.043 400.467 582.226 399.532 582.224Z" fill="#D9E1E3" stroke="#202B30" stroke-width="0.987488" stroke-linecap="round" stroke-linejoin="round"/>
<path d="M399.607 560.816V567.977C400.807 567.979 401.988 568.284 403.038 568.863C404.089 569.442 404.977 570.277 405.62 571.291C406.262 572.305 406.638 573.464 406.713 574.661C406.788 575.859 406.56 577.056 406.049 578.142C405.539 579.228 404.762 580.168 403.792 580.874C402.822 581.58 401.689 582.03 400.499 582.182C399.308 582.334 398.099 582.183 396.982 581.743C395.866 581.303 394.878 580.588 394.112 579.665L388.449 584.086C389.966 585.956 391.931 587.412 394.161 588.319C396.392 589.226 398.815 589.553 401.207 589.272C403.598 588.99 405.879 588.109 407.838 586.709C409.797 585.309 411.37 583.437 412.411 581.266C413.452 579.095 413.927 576.696 413.792 574.292C413.657 571.888 412.916 569.557 411.639 567.516C410.361 565.476 408.588 563.791 406.484 562.62C404.381 561.448 402.015 560.828 399.607 560.816Z" fill="#202B30" stroke="#202B30" stroke-width="0.987488" stroke-linecap="round" stroke-linejoin="round"/>
<path d="M406.345 607.114H392.719C392.272 607.116 391.829 607.03 391.416 606.86C391.003 606.691 390.627 606.441 390.311 606.126C389.994 605.811 389.743 605.437 389.572 605.024C389.4 604.612 389.312 604.169 389.312 603.723C389.31 603.275 389.397 602.831 389.567 602.417C389.738 602.003 389.989 601.626 390.305 601.309C390.622 600.993 390.998 600.742 391.413 600.571C391.827 600.401 392.271 600.314 392.719 600.316H406.345C407.248 600.316 408.115 600.675 408.753 601.314C409.392 601.953 409.751 602.819 409.751 603.723C409.751 604.169 409.663 604.612 409.492 605.024C409.32 605.437 409.069 605.811 408.752 606.126C408.436 606.441 408.06 606.691 407.647 606.86C407.234 607.03 406.791 607.116 406.345 607.114Z" fill="#D9E1E3" stroke="#202B30" stroke-width="0.987488" stroke-linecap="round" stroke-linejoin="round"/>
<path d="M252.795 340.529C288.114 340.529 316.746 311.897 316.746 276.578C316.746 241.258 288.114 212.626 252.795 212.626C217.475 212.626 188.844 241.258 188.844 276.578C188.844 311.897 217.475 340.529 252.795 340.529Z" fill="white"/>
<path d="M272.174 632.367C272.174 632.367 281.409 646.251 280.138 651.747C278.866 657.242 270.751 655.547 266.905 649.627C263.06 643.707 253.279 634.866 255.051 631.065C256.822 627.265 268.722 628.991 272.174 632.367Z" fill="white" stroke="#202B30" stroke-width="1.02307" stroke-linecap="round" stroke-linejoin="round"/>
<path d="M232.492 631.595C232.492 631.595 221.334 648.159 223.12 652.685C224.907 657.212 230.69 655.865 235.111 651.777C239.532 647.689 248.359 636.213 248.359 636.213C248.359 636.213 240.94 627.068 232.492 631.595Z" fill="white" stroke="#202B30" stroke-width="1.02307" stroke-linecap="round" stroke-linejoin="round"/>
<path d="M223.12 652.685C226.146 653.102 229.225 652.5 231.871 650.974C236.958 648.401 245.83 636.788 245.83 636.788" stroke="#202B30" stroke-width="0.767303" stroke-linecap="round" stroke-linejoin="round"/>
<path d="M258.154 633.836C258.154 633.836 262.984 642.92 268.419 648.068C273.855 653.215 276.519 654.684 280.092 651.747" stroke="#202B30" stroke-width="0.767303" stroke-linecap="round" stroke-linejoin="round"/>
<path d="M216.822 424.904C216.822 424.904 207.057 444.828 207.496 452.974C207.935 461.119 209.722 502.33 212.386 515.911C215.051 529.491 217.67 563.314 219.487 576.834C221.304 590.354 232.946 622.027 232.946 622.027C232.946 622.027 231.16 629.279 232.492 631.535C233.824 633.791 247.92 637.515 248.359 636.152C248.798 634.79 251.023 630.717 251.387 626.645C251.75 622.572 245.179 579.105 247.844 569.597C250.509 560.089 251.023 496.168 251.387 489.582C251.75 482.996 251.281 471.414 251.281 471.414C252.073 471.658 252.919 471.66 253.712 471.42C254.505 471.18 255.208 470.709 255.732 470.067C257.503 467.796 263.378 529.34 265.164 543.829C266.951 558.318 262.939 562.39 261.606 571.444C260.274 580.498 257.17 609.915 257.17 613.548C257.17 617.182 253.173 628.931 254.945 631.202C256.716 633.473 260.486 633.094 262.03 633.518C266.663 634.805 270.282 632.791 272.053 632.337C273.824 631.883 275.323 625.327 275.323 625.327C275.323 625.327 289.585 585.025 292.25 568.265C294.914 551.505 299.35 520.407 298.472 501.391C297.594 482.376 292.25 443.859 292.25 443.859L290.917 432.535L216.822 424.904Z" fill="#202B30" stroke="#202B30" stroke-width="1.02307" stroke-linecap="round" stroke-linejoin="round"/>
<path d="M210.585 447.947C210.585 447.947 209.722 459.121 217.034 466.418" stroke="white" stroke-width="0.506629" stroke-linecap="round" stroke-linejoin="round"/>
<path d="M211.008 463.844C211.008 463.844 215.308 471.157 220.471 472.005" stroke="white" stroke-width="0.506629" stroke-linecap="round" stroke-linejoin="round"/>
<path d="M245.376 586.115C245.376 586.115 239.32 600.558 238.503 608.446C237.685 616.334 245.376 613.261 247.102 618.514C248.828 623.768 236.792 623.344 238.942 624.646C241.092 625.948 247.526 626.841 247.526 626.841" stroke="white" stroke-width="0.511535" stroke-linecap="round" stroke-linejoin="round"/>
<path d="M257.034 622.027C258.321 621.588 272.931 618.999 271.205 611.081C269.479 603.162 260.895 602.754 262.121 593.564C263.347 584.374 276.716 564.207 276.716 558.515C276.716 552.822 267.269 531.611 266.406 518.469" stroke="white" stroke-width="0.511535" stroke-linecap="round" stroke-linejoin="round"/>
<path d="M278.033 447.099C278.033 447.099 268.147 461.27 266.86 463.42C265.573 465.57 278.457 453.973 278.457 453.973" stroke="white" stroke-width="0.506629" stroke-linecap="round" stroke-linejoin="round"/>
<path d="M252.174 442.088C252.174 442.088 253.249 452.444 253.249 454.578V466.373" stroke="white" stroke-width="0.506629" stroke-linecap="round" stroke-linejoin="round"/>
<path d="M253.249 459.953C253.249 459.953 257.897 459.242 258.957 455.669C260.017 452.096 259.684 444.949 259.684 444.949" stroke="white" stroke-width="0.506629" stroke-linecap="round" stroke-linejoin="round"/>
<path d="M342.954 319.212C337.624 303.663 336.731 295.23 336.292 290.794C335.853 286.358 330.963 287.675 330.963 287.675C330.963 287.675 320.365 293.898 320.365 295.245C320.365 296.593 325.255 329.446 326.133 335.215C326.666 338.597 326.965 342.011 327.026 345.434C327.026 345.434 308.374 325.449 303.484 320.559C299.759 316.82 296.807 313.625 293.643 311.717C291.932 310.203 288.964 309.643 284.392 308.129C276.398 305.465 267.965 299.242 258.185 299.681C251.764 300.122 245.46 301.626 239.532 304.132C239.532 304.132 225.331 310.794 215.55 315.23C214.411 315.739 213.33 316.368 212.326 317.107C210.721 316.91 207.375 317.773 203.56 326.328C198.245 338.318 174.264 369.855 170.252 380.953C166.239 392.05 174.688 403.163 184.014 412.035C190.743 418.652 197.115 425.621 203.105 432.913L213.703 419.863C214.003 422.766 214.509 425.645 215.217 428.477C216.55 432.913 220.986 437.803 238.76 439.075C256.534 440.347 296.459 442.8 295.157 433.746C293.325 420.877 294.263 379.56 293.385 368.462C293.125 361.344 293.272 354.216 293.824 347.115C295.868 349.704 299.88 354.503 302.681 356.396C306.678 359.06 323.574 371.536 330.236 374.231C336.898 376.925 346.224 372.459 350.221 363.633C354.218 354.806 348.283 334.761 342.954 319.212ZM198.185 392.928C196.398 385.828 195.52 383.163 195.52 383.163C195.52 383.163 206.905 370.9 212.386 364.359C213.128 381.907 213.597 401.104 213.083 403.92C212.679 408.641 212.785 413.393 213.401 418.091C210.433 414.018 199.699 399.045 198.185 392.928Z" fill="#009FA9" stroke="#202B30" stroke-width="1.01326" stroke-linecap="round" stroke-linejoin="round"/>
<path opacity="0.1" d="M342.954 319.212C337.624 303.663 336.731 295.23 336.292 290.794C335.853 286.358 330.963 287.675 330.963 287.675C330.963 287.675 320.365 293.898 320.365 295.245C320.365 296.593 325.255 329.446 326.133 335.215C326.666 338.597 326.965 342.011 327.026 345.434C327.026 345.434 308.374 325.449 303.484 320.559C299.759 316.82 296.807 313.625 293.643 311.717C291.932 310.203 288.964 309.643 284.392 308.129C276.398 305.465 267.965 299.242 258.185 299.681C251.764 300.122 245.46 301.626 239.532 304.132C239.532 304.132 225.331 310.794 215.55 315.23C214.411 315.739 213.33 316.368 212.326 317.107C210.721 316.91 207.375 317.773 203.56 326.328C198.245 338.318 174.264 369.855 170.252 380.953C166.239 392.05 174.688 403.163 184.014 412.035C190.743 418.652 197.115 425.621 203.105 432.913L213.703 419.863C214.003 422.766 214.509 425.645 215.217 428.477C216.55 432.913 220.986 437.803 238.76 439.075C256.534 440.347 296.459 442.8 295.157 433.746C293.325 420.877 294.263 379.56 293.385 368.462C293.125 361.344 293.272 354.216 293.824 347.115C295.868 349.704 299.88 354.503 302.681 356.396C306.678 359.06 323.574 371.536 330.236 374.231C336.898 376.925 346.224 372.459 350.221 363.633C354.218 354.806 348.283 334.761 342.954 319.212ZM198.185 392.928C196.398 385.828 195.52 383.163 195.52 383.163C195.52 383.163 206.905 370.9 212.386 364.359C213.128 381.907 213.597 401.104 213.083 403.92C212.679 408.641 212.785 413.393 213.401 418.091C210.433 414.018 199.699 399.045 198.185 392.928Z" fill="#D9E1E3"/>
<path d="M217.882 362.452C220.693 358.232 223.14 353.779 225.195 349.144" stroke="#202B30" stroke-width="0.759943" stroke-linecap="round" stroke-linejoin="round"/>
<path d="M229.055 350.43C228.027 352.572 226.563 354.475 224.756 356.017" stroke="#202B30" stroke-width="0.759943" stroke-linecap="round" stroke-linejoin="round"/>
<path d="M326.966 345.419C327.025 347.978 327.591 350.499 328.631 352.838C329.67 355.177 331.163 357.286 333.022 359.045" stroke="#202B30" stroke-width="1.01326" stroke-linecap="round" stroke-linejoin="round"/>
<path d="M328.722 352.58C328.36 356.621 329.265 360.674 331.311 364.178" stroke="#202B30" stroke-width="1.01326" stroke-linecap="round" stroke-linejoin="round"/>
<path d="M195.52 383.163C195.52 383.163 192.25 380.059 184.18 381.407" stroke="#202B30" stroke-width="0.759943" stroke-linecap="round" stroke-linejoin="round"/>
<path d="M179.714 379.62C179.714 379.62 181.955 376.032 190.448 378.712" stroke="#202B30" stroke-width="0.759943" stroke-linecap="round" stroke-linejoin="round"/>
<path d="M303.272 333.504C301.485 333.943 293.87 346.933 293.87 346.933L312.234 342.013" stroke="#202B30" stroke-width="0.759943" stroke-linecap="round" stroke-linejoin="round"/>
<path d="M250.539 324.647C250.539 324.647 253.976 329.371 261.712 327.236C269.449 325.101 272.023 316.926 270.796 311.763C269.57 306.6 243.665 310.9 250.539 324.647Z" fill="white" stroke="#202B30" stroke-width="1.01326" stroke-linecap="round" stroke-linejoin="round"/>
<path d="M243.181 295.23C243.181 295.23 237.988 298.682 237.307 301.801C236.625 304.92 238.336 314.927 239.714 318.379C241.092 321.831 245.603 329.779 245.603 329.779C245.603 329.779 261.152 320.801 262.257 320.105C263.363 319.409 274.369 325.631 276.777 324.647C279.184 323.663 270.902 302.527 267.102 298.046C263.302 293.565 248.707 291.066 243.181 295.23Z" fill="white" stroke="#202B30" stroke-width="1.01326" stroke-linecap="round" stroke-linejoin="round"/>
<path d="M240.38 283.814C240.38 283.814 240.728 289.341 241.425 297.637C242.121 305.934 244.922 312.49 249.464 316.29C254.006 320.09 260.516 322.164 262.242 320.09C263.968 318.016 266.042 309.386 265.27 304.193C264.498 299 263.544 287.963 263.544 287.963L240.38 283.814Z" fill="white" stroke="#202B30" stroke-width="1.01326" stroke-linecap="round" stroke-linejoin="round"/>
<g style="mix-blend-mode:multiply" opacity="0.5">
<path d="M264.604 297.728C264.089 292.898 263.62 287.963 263.62 287.963L240.38 283.814C240.38 283.814 240.728 289.341 241.425 297.637C241.688 301.474 242.573 305.242 244.044 308.795L264.604 297.728Z" fill="#009FA9"/>
</g>
<path d="M232.81 275.548C232.81 275.548 227.632 270.37 226.588 274.852C225.543 279.333 229.706 286.267 235.581 284.526V280.393L232.81 275.548Z" fill="white" stroke="#202B30" stroke-width="1.01326" stroke-linecap="round" stroke-linejoin="round"/>
<path opacity="0.5" d="M232.81 275.548C232.81 275.548 227.632 270.37 226.588 274.852C225.543 279.333 229.706 286.267 235.581 284.526V280.393L232.81 275.548Z" fill="#009FA9" stroke="#202B30" stroke-width="1.01326" stroke-linecap="round" stroke-linejoin="round"/>
<path d="M228.268 266.192C228.268 266.192 236.913 289.341 244.513 293.837C252.114 298.334 267.314 302.467 271.462 286.267C275.611 270.067 264.559 246.525 260.758 239.606C256.958 232.687 242.787 230.628 233.809 237.531C224.831 244.435 222.787 250.976 228.268 266.192Z" fill="white" stroke="#202B30" stroke-width="1.01326" stroke-linecap="round" stroke-linejoin="round"/>
<g style="mix-blend-mode:multiply" opacity="0.5">
<path d="M237.852 246.585C241.521 244.888 245.498 243.961 249.54 243.86L258.154 236.608C252.492 232.248 241.364 231.718 233.855 237.501C224.861 244.42 222.787 250.976 228.313 266.191C228.313 266.191 236.958 289.341 244.559 293.837C247.254 295.422 250.174 296.591 253.219 297.304C249.555 292.58 243.923 285.071 242.136 281.241C239.411 275.397 238.245 263.33 234.733 256.32C231.22 249.31 232.401 249.31 237.852 246.585Z" fill="#009FA9"/>
</g>
<path d="M255.959 259.272C255.959 259.272 259.411 265.495 258.033 266.842C257.566 267.245 257.003 267.521 256.399 267.643C255.794 267.765 255.168 267.729 254.581 267.539" stroke="#202B30" stroke-width="1.01326" stroke-linecap="round" stroke-linejoin="round"/>
<path d="M240.062 258.243C240.062 258.243 240.759 254.095 245.936 254.095" stroke="#202B30" stroke-width="2.02651" stroke-linecap="round" stroke-linejoin="round"/>
<path d="M243.181 262.391C243.181 262.391 246.981 264.117 248.359 260.317" stroke="#202B30" stroke-width="1.01326" stroke-linecap="round" stroke-linejoin="round"/>
<path d="M259.759 259.621C259.759 259.621 263.559 261.347 264.952 257.547" stroke="#202B30" stroke-width="1.01326" stroke-linecap="round" stroke-linejoin="round"/>
<path d="M256.61 251.687C257.533 250.747 258.779 250.194 260.096 250.14C261.412 250.087 262.7 250.537 263.696 251.4" stroke="#202B30" stroke-width="2.02651" stroke-linecap="round" stroke-linejoin="round"/>
<path d="M272.174 272.959C268.147 271.203 258.548 267.327 255.338 268.947C251.19 271.021 240.471 278.288 240.471 283.814C240.471 283.814 233.567 274.488 233.567 271.021C233.567 267.554 236.323 266.479 233.915 262.043C231.508 257.607 228.026 257.198 229.07 252.02C230.024 247.221 239.578 242.134 244.21 241.422C247.105 243.871 250.791 245.184 254.581 245.117C262.151 245.117 268.404 240.257 268.404 234.231C268.404 228.205 262.212 223.36 254.581 223.36C252.883 223.353 251.193 223.603 249.57 224.102C242.333 223.572 240.955 228.932 235.944 231.869C230.933 234.806 227.784 243.466 227.784 243.466H227.996C224.332 248.826 224.347 255.291 228.329 266.176C228.329 266.176 236.974 289.325 244.574 293.822C252.174 298.319 267.375 302.452 271.523 286.252C272.531 281.895 272.751 277.393 272.174 272.959Z" fill="#202B30" stroke="#202B30" stroke-width="1.01326" stroke-linecap="round" stroke-linejoin="round"/>
<path d="M263.923 272.611C263.923 272.611 258.745 279.863 252.87 275.033" stroke="white" stroke-width="1.01326" stroke-linecap="round" stroke-linejoin="round"/>
<path d="M214.158 419.136C216.21 420.431 218.015 422.082 219.487 424.011C221.291 426.481 223.221 428.856 225.27 431.127C225.27 431.127 230.145 431.566 229.706 433.791C229.267 436.017 228.374 437.334 226.148 437.334C223.923 437.334 219.048 432.898 219.048 432.898L211.947 443.996C211.947 443.996 205.286 439.121 203.06 432.898L214.158 419.136Z" fill="white" stroke="#202B30" stroke-width="1.01326" stroke-linecap="round" stroke-linejoin="round"/>
<path d="M252.795 340.529C288.114 340.529 316.746 311.897 316.746 276.578C316.746 241.258 288.114 212.626 252.795 212.626C217.475 212.626 188.844 241.258 188.844 276.578C188.844 311.897 217.475 340.529 252.795 340.529Z" stroke="#202B30" stroke-width="2.02651" stroke-linecap="round" stroke-linejoin="round"/>
<path d="M310.539 264.148C310.539 264.148 306.088 263.693 305.209 266.358C304.331 269.023 302.984 271.687 302.984 273.474C302.984 275.26 303.423 276.578 305.649 277.017C307.874 277.456 309.206 274.352 309.206 274.352L310.539 264.148Z" fill="white" stroke="#202B30" stroke-width="1.01326" stroke-linecap="round" stroke-linejoin="round"/>
<path d="M311.417 261.029C311.417 261.029 309.207 273.02 309.207 276.578C309.303 279.313 310.233 281.954 311.871 284.148C312.681 285.065 313.773 285.688 314.975 285.919L317.2 283.254C317.2 283.254 314.536 286.812 318.079 291.248C321.621 295.684 324.301 295.245 327.405 293.913C330.508 292.581 331.402 290.809 330.069 285.919C328.737 281.029 327.859 273.035 326.966 268.16C326.072 263.285 322.969 261.498 321.197 261.498C319.426 261.498 314.566 259.696 311.417 261.029Z" fill="white" stroke="#202B30" stroke-width="1.01326" stroke-linecap="round" stroke-linejoin="round"/>
<path d="M309.797 279.076C309.797 279.076 309.01 276.32 312.356 275.927C315.702 275.533 321.228 274.942 321.228 274.942" stroke="#202B30" stroke-width="0.506629" stroke-linecap="round" stroke-linejoin="round"/>
<path d="M310.191 271.99C310.191 271.99 317.867 270.007 320.637 270.4" stroke="#202B30" stroke-width="0.506629" stroke-linecap="round" stroke-linejoin="round"/>
<path d="M310.781 266.464C313.645 265.955 316.547 265.692 319.456 265.677" stroke="#202B30" stroke-width="0.506629" stroke-linecap="round" stroke-linejoin="round"/>
<path d="M313.34 281.241C313.947 281.787 314.676 282.181 315.466 282.389C316.256 282.597 317.084 282.613 317.882 282.437" stroke="#202B30" stroke-width="0.506629" stroke-linecap="round" stroke-linejoin="round"/>
</svg>
